<svg xmlns="http://www.w3.org/2000/svg" xmlns:xlink="http://www.w3.org/1999/xlink" width="500" zoomAndPan="magnify" viewBox="0 0 375 112.499997" height="150" preserveAspectRatio="xMidYMid meet" version="1.0"><defs><g/><clipPath id="a17d34bb8a"><path d="M 0.828125 0 L 374.167969 0 L 374.167969 112.003906 L 0.828125 112.003906 Z M 0.828125 0 " clip-rule="nonzero"/></clipPath><clipPath id="9d3c970a70"><path d="M 12.03125 19.429688 L 65 19.429688 L 65 72.445312 L 12.03125 72.445312 Z M 12.03125 19.429688 " clip-rule="nonzero"/></clipPath></defs><g clip-path="url(#a17d34bb8a)"><path fill="#ffffff" d="M 0.828125 0 L 374.171875 0 L 374.171875 112.003906 L 0.828125 112.003906 Z M 0.828125 0 " fill-opacity="1" fill-rule="nonzero"/><path fill="#ffffff" d="M 0.828125 0 L 374.171875 0 L 374.171875 112.003906 L 0.828125 112.003906 Z M 0.828125 0 " fill-opacity="1" fill-rule="nonzero"/></g><g fill="#268fcd" fill-opacity="1"><g transform="translate(85.072583, 64.231206)"><g><path d="M 13.75 0.359375 C 11.425781 0.359375 9.378906 -0.09375 7.609375 -1 C 5.847656 -1.914062 4.488281 -3.191406 3.53125 -4.828125 C 2.582031 -6.472656 2.109375 -8.375 2.109375 -10.53125 L 2.109375 -20.875 C 2.109375 -23.019531 2.582031 -24.914062 3.53125 -26.5625 C 4.488281 -28.207031 5.847656 -29.476562 7.609375 -30.375 C 9.378906 -31.269531 11.425781 -31.71875 13.75 -31.71875 C 16.050781 -31.71875 18.070312 -31.289062 19.8125 -30.4375 C 21.5625 -29.582031 22.921875 -28.367188 23.890625 -26.796875 C 24.867188 -25.234375 25.359375 -23.425781 25.359375 -21.375 C 25.359375 -21.101562 25.117188 -20.9375 24.640625 -20.875 L 19.84375 -20.5625 L 19.671875 -20.5625 C 19.242188 -20.5625 19.03125 -20.632812 19.03125 -20.78125 L 19.03125 -21.046875 C 19.03125 -22.628906 18.546875 -23.898438 17.578125 -24.859375 C 16.609375 -25.816406 15.332031 -26.296875 13.75 -26.296875 C 12.132812 -26.296875 10.84375 -25.816406 9.875 -24.859375 C 8.90625 -23.898438 8.421875 -22.628906 8.421875 -21.046875 L 8.421875 -10.265625 C 8.421875 -8.703125 8.90625 -7.441406 9.875 -6.484375 C 10.84375 -5.535156 12.132812 -5.0625 13.75 -5.0625 C 15.332031 -5.0625 16.609375 -5.535156 17.578125 -6.484375 C 18.546875 -7.441406 19.03125 -8.703125 19.03125 -10.265625 C 19.03125 -10.410156 19.097656 -10.535156 19.234375 -10.640625 C 19.367188 -10.742188 19.554688 -10.78125 19.796875 -10.75 L 24.59375 -10.53125 C 25.101562 -10.46875 25.359375 -10.390625 25.359375 -10.296875 L 25.359375 -10.078125 C 25.359375 -8.015625 24.867188 -6.191406 23.890625 -4.609375 C 22.921875 -3.023438 21.5625 -1.800781 19.8125 -0.9375 C 18.070312 -0.0703125 16.050781 0.359375 13.75 0.359375 Z M 13.75 0.359375 "/></g></g></g><g fill="#268fcd" fill-opacity="1"><g transform="translate(112.311493, 64.231206)"><g><path d="M 22.890625 0 C 22.472656 0 22.191406 -0.207031 22.046875 -0.625 L 20.78125 -4.796875 C 20.75 -4.941406 20.660156 -5.015625 20.515625 -5.015625 L 9.546875 -5.015625 C 9.390625 -5.015625 9.296875 -4.941406 9.265625 -4.796875 L 8.015625 -0.625 C 7.867188 -0.207031 7.585938 0 7.171875 0 L 1.96875 0 C 1.695312 0 1.5 -0.0820312 1.375 -0.25 C 1.257812 -0.414062 1.25 -0.613281 1.34375 -0.84375 L 10.890625 -30.734375 C 11.035156 -31.148438 11.316406 -31.359375 11.734375 -31.359375 L 18.328125 -31.359375 C 18.742188 -31.359375 19.023438 -31.148438 19.171875 -30.734375 L 28.71875 -0.84375 C 28.75 -0.789062 28.765625 -0.703125 28.765625 -0.578125 C 28.765625 -0.398438 28.703125 -0.257812 28.578125 -0.15625 C 28.460938 -0.0507812 28.300781 0 28.09375 0 Z M 10.84375 -10.21875 C 10.8125 -10.007812 10.882812 -9.90625 11.0625 -9.90625 L 19 -9.90625 C 19.175781 -9.90625 19.25 -10.007812 19.21875 -10.21875 L 15.1875 -23.875 C 15.15625 -24 15.101562 -24.0625 15.03125 -24.0625 C 14.957031 -24.0625 14.890625 -24 14.828125 -23.875 Z M 10.84375 -10.21875 "/></g></g></g><g fill="#268fcd" fill-opacity="1"><g transform="translate(142.372858, 64.231206)"><g><path d="M 2.1875 0 C 1.6875 0 1.4375 -0.253906 1.4375 -0.765625 L 1.4375 -5.203125 C 1.4375 -5.585938 1.539062 -5.898438 1.75 -6.140625 L 16.078125 -25.625 C 16.140625 -25.71875 16.15625 -25.789062 16.125 -25.84375 C 16.09375 -25.90625 16.019531 -25.9375 15.90625 -25.9375 L 2.1875 -25.9375 C 1.6875 -25.9375 1.4375 -26.191406 1.4375 -26.703125 L 1.4375 -30.59375 C 1.4375 -31.101562 1.6875 -31.359375 2.1875 -31.359375 L 22.484375 -31.359375 C 22.992188 -31.359375 23.25 -31.101562 23.25 -30.59375 L 23.25 -26.15625 C 23.25 -25.769531 23.144531 -25.457031 22.9375 -25.21875 L 8.59375 -5.734375 C 8.539062 -5.640625 8.523438 -5.5625 8.546875 -5.5 C 8.578125 -5.445312 8.65625 -5.421875 8.78125 -5.421875 L 22.484375 -5.421875 C 22.992188 -5.421875 23.25 -5.164062 23.25 -4.65625 L 23.25 -0.765625 C 23.25 -0.253906 22.992188 0 22.484375 0 Z M 2.1875 0 "/></g></g></g><g fill="#79b84e" fill-opacity="1"><g transform="translate(167.335869, 64.231206)"><g><path d="M 13.34375 0.359375 C 11.019531 0.359375 8.972656 -0.0234375 7.203125 -0.796875 C 5.441406 -1.578125 4.082031 -2.671875 3.125 -4.078125 C 2.175781 -5.484375 1.703125 -7.125 1.703125 -9 L 1.703125 -9.765625 C 1.703125 -10.273438 1.957031 -10.53125 2.46875 -10.53125 L 7.171875 -10.53125 C 7.671875 -10.53125 7.921875 -10.332031 7.921875 -9.9375 L 7.921875 -9.3125 C 7.921875 -8.125 8.46875 -7.117188 9.5625 -6.296875 C 10.65625 -5.472656 12.082031 -5.0625 13.84375 -5.0625 C 15.425781 -5.0625 16.597656 -5.394531 17.359375 -6.0625 C 18.117188 -6.738281 18.5 -7.570312 18.5 -8.5625 C 18.5 -9.269531 18.257812 -9.867188 17.78125 -10.359375 C 17.300781 -10.859375 16.660156 -11.296875 15.859375 -11.671875 C 15.054688 -12.046875 13.753906 -12.5625 11.953125 -13.21875 C 9.929688 -13.90625 8.234375 -14.601562 6.859375 -15.3125 C 5.484375 -16.03125 4.316406 -17.007812 3.359375 -18.25 C 2.398438 -19.488281 1.921875 -21.019531 1.921875 -22.84375 C 1.921875 -24.632812 2.382812 -26.203125 3.3125 -27.546875 C 4.238281 -28.890625 5.53125 -29.921875 7.1875 -30.640625 C 8.84375 -31.359375 10.734375 -31.71875 12.859375 -31.71875 C 15.128906 -31.71875 17.160156 -31.3125 18.953125 -30.5 C 20.742188 -29.695312 22.140625 -28.570312 23.140625 -27.125 C 24.140625 -25.675781 24.640625 -23.992188 24.640625 -22.078125 L 24.640625 -21.640625 C 24.640625 -21.128906 24.382812 -20.875 23.875 -20.875 L 19.171875 -20.875 C 18.660156 -20.875 18.40625 -21.023438 18.40625 -21.328125 L 18.40625 -21.765625 C 18.40625 -23.023438 17.890625 -24.09375 16.859375 -24.96875 C 15.835938 -25.851562 14.425781 -26.296875 12.625 -26.296875 C 11.195312 -26.296875 10.09375 -25.992188 9.3125 -25.390625 C 8.539062 -24.796875 8.15625 -23.976562 8.15625 -22.9375 C 8.15625 -22.1875 8.378906 -21.554688 8.828125 -21.046875 C 9.273438 -20.546875 9.953125 -20.082031 10.859375 -19.65625 C 11.773438 -19.238281 13.1875 -18.703125 15.09375 -18.046875 C 17.1875 -17.273438 18.84375 -16.597656 20.0625 -16.015625 C 21.289062 -15.429688 22.390625 -14.539062 23.359375 -13.34375 C 24.328125 -12.15625 24.8125 -10.617188 24.8125 -8.734375 C 24.8125 -6.910156 24.34375 -5.3125 23.40625 -3.9375 C 22.46875 -2.5625 21.140625 -1.5 19.421875 -0.75 C 17.703125 -0.0078125 15.675781 0.359375 13.34375 0.359375 Z M 13.34375 0.359375 "/></g></g></g><g fill="#79b84e" fill-opacity="1"><g transform="translate(193.857971, 64.231206)"><g><path d="M 13.4375 -4.96875 C 15.40625 -5.0625 16.914062 -5.75 17.96875 -7.03125 C 18.144531 -7.238281 18.335938 -7.34375 18.546875 -7.34375 C 18.722656 -7.34375 18.882812 -7.269531 19.03125 -7.125 L 21.59375 -4.65625 C 21.769531 -4.476562 21.859375 -4.300781 21.859375 -4.125 C 21.859375 -3.914062 21.800781 -3.734375 21.6875 -3.578125 C 20.695312 -2.359375 19.429688 -1.394531 17.890625 -0.6875 C 16.359375 0.0078125 14.679688 0.359375 12.859375 0.359375 C 10.109375 0.359375 7.828125 -0.34375 6.015625 -1.75 C 4.210938 -3.15625 3 -5.082031 2.375 -7.53125 C 2.019531 -8.84375 1.84375 -10.226562 1.84375 -11.6875 C 1.84375 -13.425781 2.003906 -14.890625 2.328125 -16.078125 C 2.921875 -18.285156 4.117188 -20.0625 5.921875 -21.40625 C 7.734375 -22.75 9.878906 -23.421875 12.359375 -23.421875 C 15.285156 -23.421875 17.609375 -22.554688 19.328125 -20.828125 C 21.046875 -19.097656 22.160156 -16.664062 22.671875 -13.53125 C 22.785156 -12.539062 22.875 -11.453125 22.9375 -10.265625 C 22.9375 -9.753906 22.679688 -9.5 22.171875 -9.5 L 8.421875 -9.5 C 8.242188 -9.5 8.15625 -9.410156 8.15625 -9.234375 C 8.238281 -8.597656 8.34375 -8.132812 8.46875 -7.84375 C 8.769531 -6.914062 9.359375 -6.203125 10.234375 -5.703125 C 11.117188 -5.210938 12.1875 -4.96875 13.4375 -4.96875 Z M 12.28125 -17.96875 C 11.320312 -17.96875 10.519531 -17.734375 9.875 -17.265625 C 9.238281 -16.804688 8.800781 -16.160156 8.5625 -15.328125 C 8.40625 -14.753906 8.3125 -14.378906 8.28125 -14.203125 C 8.257812 -14.023438 8.335938 -13.9375 8.515625 -13.9375 L 16.125 -13.9375 C 16.269531 -13.9375 16.34375 -13.992188 16.34375 -14.109375 C 16.34375 -14.441406 16.285156 -14.785156 16.171875 -15.140625 C 15.898438 -16.003906 15.4375 -16.691406 14.78125 -17.203125 C 14.125 -17.710938 13.289062 -17.96875 12.28125 -17.96875 Z M 12.28125 -17.96875 "/></g></g></g><g fill="#79b84e" fill-opacity="1"><g transform="translate(218.364025, 64.231206)"><g><path d="M 16.390625 -22.265625 C 16.390625 -22.773438 16.644531 -23.03125 17.15625 -23.03125 L 21.953125 -23.03125 C 22.460938 -23.03125 22.71875 -22.773438 22.71875 -22.265625 L 22.71875 -2.0625 C 22.71875 1.851562 21.597656 4.644531 19.359375 6.3125 C 17.117188 7.988281 14.234375 8.828125 10.703125 8.828125 C 9.722656 8.828125 8.601562 8.75 7.34375 8.59375 C 6.894531 8.570312 6.671875 8.304688 6.671875 7.796875 L 6.859375 3.625 C 6.859375 3.382812 6.9375 3.195312 7.09375 3.0625 C 7.257812 2.925781 7.460938 2.890625 7.703125 2.953125 C 8.804688 3.109375 9.71875 3.1875 10.4375 3.1875 C 12.351562 3.1875 13.820312 2.765625 14.84375 1.921875 C 15.875 1.085938 16.390625 -0.253906 16.390625 -2.109375 C 16.390625 -2.191406 16.359375 -2.238281 16.296875 -2.25 C 16.242188 -2.269531 16.171875 -2.238281 16.078125 -2.15625 C 14.972656 -0.957031 13.332031 -0.359375 11.15625 -0.359375 C 9.21875 -0.359375 7.429688 -0.828125 5.796875 -1.765625 C 4.171875 -2.710938 3.015625 -4.226562 2.328125 -6.3125 C 1.878906 -7.6875 1.65625 -9.460938 1.65625 -11.640625 C 1.65625 -13.972656 1.925781 -15.875 2.46875 -17.34375 C 3.09375 -19.15625 4.148438 -20.613281 5.640625 -21.71875 C 7.140625 -22.832031 8.875 -23.390625 10.84375 -23.390625 C 13.082031 -23.390625 14.828125 -22.71875 16.078125 -21.375 C 16.171875 -21.28125 16.242188 -21.25 16.296875 -21.28125 C 16.359375 -21.3125 16.390625 -21.382812 16.390625 -21.5 Z M 16.03125 -8.015625 C 16.269531 -8.910156 16.390625 -10.132812 16.390625 -11.6875 C 16.390625 -12.613281 16.359375 -13.332031 16.296875 -13.84375 C 16.242188 -14.351562 16.144531 -14.832031 16 -15.28125 C 15.726562 -16.082031 15.273438 -16.726562 14.640625 -17.21875 C 14.015625 -17.71875 13.238281 -17.96875 12.3125 -17.96875 C 11.414062 -17.96875 10.65625 -17.71875 10.03125 -17.21875 C 9.40625 -16.726562 8.941406 -16.082031 8.640625 -15.28125 C 8.222656 -14.382812 8.015625 -13.171875 8.015625 -11.640625 C 8.015625 -9.972656 8.195312 -8.78125 8.5625 -8.0625 C 8.820312 -7.257812 9.285156 -6.609375 9.953125 -6.109375 C 10.628906 -5.617188 11.429688 -5.375 12.359375 -5.375 C 13.316406 -5.375 14.109375 -5.617188 14.734375 -6.109375 C 15.359375 -6.609375 15.789062 -7.242188 16.03125 -8.015625 Z M 16.03125 -8.015625 "/></g></g></g><g fill="#79b84e" fill-opacity="1"><g transform="translate(243.273293, 64.231206)"><g><path d="M 15.765625 -22.265625 C 15.765625 -22.773438 16.019531 -23.03125 16.53125 -23.03125 L 21.328125 -23.03125 C 21.828125 -23.03125 22.078125 -22.773438 22.078125 -22.265625 L 22.078125 -0.765625 C 22.078125 -0.253906 21.828125 0 21.328125 0 L 16.53125 0 C 16.019531 0 15.765625 -0.253906 15.765625 -0.765625 L 15.765625 -1.96875 C 15.765625 -2.09375 15.726562 -2.160156 15.65625 -2.171875 C 15.582031 -2.179688 15.515625 -2.144531 15.453125 -2.0625 C 14.285156 -0.476562 12.445312 0.3125 9.9375 0.3125 C 7.675781 0.3125 5.8125 -0.375 4.34375 -1.75 C 2.882812 -3.125 2.15625 -5.050781 2.15625 -7.53125 L 2.15625 -22.265625 C 2.15625 -22.773438 2.40625 -23.03125 2.90625 -23.03125 L 7.65625 -23.03125 C 8.164062 -23.03125 8.421875 -22.773438 8.421875 -22.265625 L 8.421875 -9.09375 C 8.421875 -7.894531 8.738281 -6.921875 9.375 -6.171875 C 10.019531 -5.429688 10.910156 -5.0625 12.046875 -5.0625 C 13.066406 -5.0625 13.90625 -5.367188 14.5625 -5.984375 C 15.21875 -6.597656 15.617188 -7.394531 15.765625 -8.375 Z M 15.765625 -22.265625 "/></g></g></g><g fill="#79b84e" fill-opacity="1"><g transform="translate(267.689748, 64.231206)"><g><path d="M 13.796875 -23.34375 C 14.753906 -23.34375 15.546875 -23.160156 16.171875 -22.796875 C 16.523438 -22.617188 16.660156 -22.304688 16.578125 -21.859375 L 15.71875 -17.15625 C 15.6875 -16.882812 15.601562 -16.71875 15.46875 -16.65625 C 15.34375 -16.601562 15.128906 -16.609375 14.828125 -16.671875 C 14.347656 -16.785156 13.914062 -16.84375 13.53125 -16.84375 C 13.320312 -16.84375 12.976562 -16.8125 12.5 -16.75 C 11.425781 -16.664062 10.515625 -16.269531 9.765625 -15.5625 C 9.015625 -14.863281 8.640625 -13.929688 8.640625 -12.765625 L 8.640625 -0.765625 C 8.640625 -0.253906 8.390625 0 7.890625 0 L 3.09375 0 C 2.582031 0 2.328125 -0.253906 2.328125 -0.765625 L 2.328125 -22.265625 C 2.328125 -22.773438 2.582031 -23.03125 3.09375 -23.03125 L 7.890625 -23.03125 C 8.390625 -23.03125 8.640625 -22.773438 8.640625 -22.265625 L 8.640625 -20.875 C 8.640625 -20.757812 8.671875 -20.6875 8.734375 -20.65625 C 8.796875 -20.625 8.867188 -20.648438 8.953125 -20.734375 C 10.148438 -22.472656 11.765625 -23.34375 13.796875 -23.34375 Z M 13.796875 -23.34375 "/></g></g></g><g fill="#79b84e" fill-opacity="1"><g transform="translate(284.848471, 64.231206)"><g><path d="M 12.546875 0.359375 C 10.003906 0.359375 7.835938 -0.296875 6.046875 -1.609375 C 4.253906 -2.921875 3.03125 -4.710938 2.375 -6.984375 C 1.957031 -8.390625 1.75 -9.914062 1.75 -11.5625 C 1.75 -13.382812 1.972656 -14.96875 2.421875 -16.3125 C 3.109375 -18.519531 4.335938 -20.25 6.109375 -21.5 C 7.890625 -22.757812 10.050781 -23.390625 12.59375 -23.390625 C 15.039062 -23.390625 17.132812 -22.757812 18.875 -21.5 C 20.625 -20.25 21.84375 -18.53125 22.53125 -16.34375 C 22.976562 -14.976562 23.203125 -13.410156 23.203125 -11.640625 C 23.203125 -10.085938 23.007812 -8.582031 22.625 -7.125 C 21.9375 -4.789062 20.703125 -2.957031 18.921875 -1.625 C 17.148438 -0.300781 15.023438 0.359375 12.546875 0.359375 Z M 12.546875 -5.0625 C 13.503906 -5.0625 14.320312 -5.359375 15 -5.953125 C 15.6875 -6.554688 16.179688 -7.378906 16.484375 -8.421875 C 16.722656 -9.222656 16.84375 -10.269531 16.84375 -11.5625 C 16.84375 -12.8125 16.722656 -13.867188 16.484375 -14.734375 C 16.179688 -15.753906 15.6875 -16.546875 15 -17.109375 C 14.320312 -17.679688 13.472656 -17.96875 12.453125 -17.96875 C 11.460938 -17.96875 10.625 -17.679688 9.9375 -17.109375 C 9.257812 -16.546875 8.769531 -15.753906 8.46875 -14.734375 C 8.226562 -13.867188 8.109375 -12.8125 8.109375 -11.5625 C 8.109375 -10.332031 8.226562 -9.285156 8.46875 -8.421875 C 8.769531 -7.378906 9.269531 -6.554688 9.96875 -5.953125 C 10.664062 -5.359375 11.523438 -5.0625 12.546875 -5.0625 Z M 12.546875 -5.0625 "/></g></g></g><g fill="#79b84e" fill-opacity="1"><g transform="translate(309.802538, 64.231206)"><g><path d="M 11.515625 0.3125 C 9.515625 0.3125 7.765625 0.03125 6.265625 -0.53125 C 4.773438 -1.101562 3.625 -1.894531 2.8125 -2.90625 C 2.007812 -3.925781 1.609375 -5.078125 1.609375 -6.359375 L 1.609375 -6.578125 C 1.609375 -7.085938 1.863281 -7.34375 2.375 -7.34375 L 6.90625 -7.34375 C 7.40625 -7.34375 7.65625 -7.253906 7.65625 -7.078125 L 7.65625 -6.765625 C 7.65625 -6.109375 8.015625 -5.546875 8.734375 -5.078125 C 9.453125 -4.617188 10.363281 -4.390625 11.46875 -4.390625 C 12.476562 -4.390625 13.296875 -4.582031 13.921875 -4.96875 C 14.554688 -5.363281 14.875 -5.875 14.875 -6.5 C 14.875 -7.03125 14.601562 -7.429688 14.0625 -7.703125 C 13.53125 -7.972656 12.648438 -8.257812 11.421875 -8.5625 C 9.960938 -8.945312 8.875 -9.289062 8.15625 -9.59375 C 6.207031 -10.25 4.664062 -11.050781 3.53125 -12 C 2.40625 -12.957031 1.84375 -14.332031 1.84375 -16.125 C 1.84375 -18.332031 2.707031 -20.085938 4.4375 -21.390625 C 6.164062 -22.691406 8.4375 -23.34375 11.25 -23.34375 C 13.15625 -23.34375 14.832031 -23.035156 16.28125 -22.421875 C 17.726562 -21.804688 18.847656 -20.945312 19.640625 -19.84375 C 20.429688 -18.738281 20.828125 -17.484375 20.828125 -16.078125 C 20.828125 -15.929688 20.757812 -15.804688 20.625 -15.703125 C 20.488281 -15.597656 20.300781 -15.546875 20.0625 -15.546875 L 15.671875 -15.546875 C 15.171875 -15.546875 14.921875 -15.632812 14.921875 -15.8125 L 14.921875 -16.078125 C 14.921875 -16.734375 14.59375 -17.285156 13.9375 -17.734375 C 13.28125 -18.179688 12.394531 -18.40625 11.28125 -18.40625 C 10.300781 -18.40625 9.488281 -18.226562 8.84375 -17.875 C 8.207031 -17.519531 7.890625 -17.023438 7.890625 -16.390625 C 7.890625 -15.796875 8.191406 -15.347656 8.796875 -15.046875 C 9.410156 -14.753906 10.421875 -14.441406 11.828125 -14.109375 C 12.691406 -13.929688 13.523438 -13.707031 14.328125 -13.4375 C 16.484375 -12.8125 18.171875 -12.003906 19.390625 -11.015625 C 20.617188 -10.035156 21.234375 -8.601562 21.234375 -6.71875 C 21.234375 -4.507812 20.351562 -2.785156 18.59375 -1.546875 C 16.832031 -0.304688 14.472656 0.3125 11.515625 0.3125 Z M 11.515625 0.3125 "/></g></g></g><g fill="#79b84e" fill-opacity="1"><g transform="translate(50.047753, 87.716523)"><g><path d="M 8.546875 -6.5625 C 8.515625 -6.550781 8.5 -6.53125 8.5 -6.5 C 8.5 -6.46875 8.515625 -6.441406 8.546875 -6.421875 C 9.671875 -5.859375 10.234375 -4.890625 10.234375 -3.515625 C 10.234375 -2.359375 9.835938 -1.484375 9.046875 -0.890625 C 8.265625 -0.296875 7.234375 0 5.953125 0 L 1.390625 0 C 1.191406 0 1.09375 -0.0976562 1.09375 -0.296875 L 1.09375 -12.234375 C 1.09375 -12.441406 1.191406 -12.546875 1.390625 -12.546875 L 5.8125 -12.546875 C 8.632812 -12.546875 10.046875 -11.398438 10.046875 -9.109375 C 10.046875 -7.898438 9.546875 -7.050781 8.546875 -6.5625 Z M 3.734375 -10.375 C 3.660156 -10.375 3.625 -10.335938 3.625 -10.265625 L 3.625 -7.515625 C 3.625 -7.441406 3.660156 -7.40625 3.734375 -7.40625 L 5.8125 -7.40625 C 6.375 -7.40625 6.804688 -7.535156 7.109375 -7.796875 C 7.421875 -8.054688 7.578125 -8.414062 7.578125 -8.875 C 7.578125 -9.332031 7.421875 -9.695312 7.109375 -9.96875 C 6.804688 -10.238281 6.375 -10.375 5.8125 -10.375 Z M 5.953125 -2.1875 C 6.503906 -2.1875 6.929688 -2.328125 7.234375 -2.609375 C 7.546875 -2.890625 7.703125 -3.273438 7.703125 -3.765625 C 7.703125 -4.253906 7.546875 -4.640625 7.234375 -4.921875 C 6.929688 -5.203125 6.5 -5.34375 5.9375 -5.34375 L 3.734375 -5.34375 C 3.660156 -5.34375 3.625 -5.304688 3.625 -5.234375 L 3.625 -2.296875 C 3.625 -2.222656 3.660156 -2.1875 3.734375 -2.1875 Z M 5.953125 -2.1875 "/></g></g></g><g fill="#79b84e" fill-opacity="1"><g transform="translate(61.158341, 87.716523)"><g><path d="M 5.515625 -9.34375 C 5.898438 -9.34375 6.21875 -9.269531 6.46875 -9.125 C 6.613281 -9.050781 6.664062 -8.925781 6.625 -8.75 L 6.296875 -6.859375 C 6.273438 -6.753906 6.238281 -6.6875 6.1875 -6.65625 C 6.132812 -6.632812 6.050781 -6.640625 5.9375 -6.671875 C 5.738281 -6.710938 5.5625 -6.734375 5.40625 -6.734375 C 5.320312 -6.734375 5.1875 -6.722656 5 -6.703125 C 4.570312 -6.671875 4.207031 -6.515625 3.90625 -6.234375 C 3.601562 -5.953125 3.453125 -5.578125 3.453125 -5.109375 L 3.453125 -0.296875 C 3.453125 -0.0976562 3.351562 0 3.15625 0 L 1.234375 0 C 1.035156 0 0.9375 -0.0976562 0.9375 -0.296875 L 0.9375 -8.90625 C 0.9375 -9.113281 1.035156 -9.21875 1.234375 -9.21875 L 3.15625 -9.21875 C 3.351562 -9.21875 3.453125 -9.113281 3.453125 -8.90625 L 3.453125 -8.359375 C 3.453125 -8.304688 3.460938 -8.273438 3.484375 -8.265625 C 3.515625 -8.253906 3.546875 -8.265625 3.578125 -8.296875 C 4.054688 -8.992188 4.703125 -9.34375 5.515625 -9.34375 Z M 5.515625 -9.34375 "/></g></g></g><g fill="#79b84e" fill-opacity="1"><g transform="translate(68.021815, 87.716523)"><g><path d="M 5.015625 0.140625 C 4.003906 0.140625 3.140625 -0.117188 2.421875 -0.640625 C 1.703125 -1.171875 1.210938 -1.890625 0.953125 -2.796875 C 0.785156 -3.359375 0.703125 -3.96875 0.703125 -4.625 C 0.703125 -5.351562 0.789062 -5.988281 0.96875 -6.53125 C 1.238281 -7.40625 1.726562 -8.09375 2.4375 -8.59375 C 3.15625 -9.101562 4.019531 -9.359375 5.03125 -9.359375 C 6.007812 -9.359375 6.847656 -9.101562 7.546875 -8.59375 C 8.253906 -8.09375 8.742188 -7.410156 9.015625 -6.546875 C 9.191406 -5.992188 9.28125 -5.363281 9.28125 -4.65625 C 9.28125 -4.039062 9.203125 -3.4375 9.046875 -2.84375 C 8.773438 -1.914062 8.28125 -1.1875 7.5625 -0.65625 C 6.851562 -0.125 6.003906 0.140625 5.015625 0.140625 Z M 5.015625 -2.03125 C 5.398438 -2.03125 5.726562 -2.144531 6 -2.375 C 6.28125 -2.613281 6.476562 -2.945312 6.59375 -3.375 C 6.6875 -3.695312 6.734375 -4.113281 6.734375 -4.625 C 6.734375 -5.125 6.6875 -5.546875 6.59375 -5.890625 C 6.476562 -6.296875 6.28125 -6.613281 6 -6.84375 C 5.726562 -7.070312 5.390625 -7.1875 4.984375 -7.1875 C 4.585938 -7.1875 4.25 -7.070312 3.96875 -6.84375 C 3.695312 -6.613281 3.503906 -6.296875 3.390625 -5.890625 C 3.296875 -5.546875 3.25 -5.125 3.25 -4.625 C 3.25 -4.132812 3.296875 -3.71875 3.390625 -3.375 C 3.503906 -2.945312 3.703125 -2.613281 3.984375 -2.375 C 4.265625 -2.144531 4.609375 -2.03125 5.015625 -2.03125 Z M 5.015625 -2.03125 "/></g></g></g><g fill="#79b84e" fill-opacity="1"><g transform="translate(78.003426, 87.716523)"><g><path d="M 1.234375 0 C 1.035156 0 0.9375 -0.0976562 0.9375 -0.296875 L 0.9375 -12.234375 C 0.9375 -12.441406 1.035156 -12.546875 1.234375 -12.546875 L 3.15625 -12.546875 C 3.351562 -12.546875 3.453125 -12.441406 3.453125 -12.234375 L 3.453125 -6.328125 C 3.453125 -6.273438 3.46875 -6.242188 3.5 -6.234375 C 3.53125 -6.234375 3.554688 -6.253906 3.578125 -6.296875 L 5.96875 -9.03125 C 6.082031 -9.15625 6.207031 -9.21875 6.34375 -9.21875 L 8.515625 -9.21875 C 8.597656 -9.21875 8.660156 -9.203125 8.703125 -9.171875 C 8.753906 -9.140625 8.78125 -9.09375 8.78125 -9.03125 C 8.78125 -8.957031 8.753906 -8.890625 8.703125 -8.828125 L 6.5 -6.078125 C 6.46875 -6.035156 6.460938 -5.988281 6.484375 -5.9375 L 9.125 -0.359375 L 9.15625 -0.21875 C 9.15625 -0.0703125 9.066406 0 8.890625 0 L 6.859375 0 C 6.691406 0 6.570312 -0.078125 6.5 -0.234375 L 4.765625 -4.34375 C 4.734375 -4.40625 4.6875 -4.410156 4.625 -4.359375 L 3.515625 -2.9375 C 3.472656 -2.894531 3.453125 -2.851562 3.453125 -2.8125 L 3.453125 -0.296875 C 3.453125 -0.0976562 3.351562 0 3.15625 0 Z M 1.234375 0 "/></g></g></g><g fill="#79b84e" fill-opacity="1"><g transform="translate(87.554945, 87.716523)"><g><path d="M 5.375 -1.984375 C 6.164062 -2.023438 6.769531 -2.300781 7.1875 -2.8125 C 7.257812 -2.894531 7.335938 -2.9375 7.421875 -2.9375 C 7.492188 -2.9375 7.554688 -2.90625 7.609375 -2.84375 L 8.640625 -1.859375 C 8.710938 -1.785156 8.75 -1.71875 8.75 -1.65625 C 8.75 -1.5625 8.722656 -1.488281 8.671875 -1.4375 C 8.273438 -0.945312 7.769531 -0.5625 7.15625 -0.28125 C 6.539062 0 5.867188 0.140625 5.140625 0.140625 C 4.046875 0.140625 3.132812 -0.140625 2.40625 -0.703125 C 1.6875 -1.265625 1.203125 -2.035156 0.953125 -3.015625 C 0.804688 -3.535156 0.734375 -4.085938 0.734375 -4.671875 C 0.734375 -5.367188 0.800781 -5.957031 0.9375 -6.4375 C 1.175781 -7.320312 1.65625 -8.03125 2.375 -8.5625 C 3.09375 -9.101562 3.953125 -9.375 4.953125 -9.375 C 6.117188 -9.375 7.046875 -9.023438 7.734375 -8.328125 C 8.421875 -7.640625 8.863281 -6.664062 9.0625 -5.40625 C 9.113281 -5.019531 9.148438 -4.585938 9.171875 -4.109375 C 9.171875 -3.898438 9.070312 -3.796875 8.875 -3.796875 L 3.375 -3.796875 C 3.300781 -3.796875 3.265625 -3.757812 3.265625 -3.6875 C 3.296875 -3.4375 3.335938 -3.253906 3.390625 -3.140625 C 3.503906 -2.765625 3.738281 -2.476562 4.09375 -2.28125 C 4.445312 -2.082031 4.875 -1.984375 5.375 -1.984375 Z M 4.90625 -7.1875 C 4.53125 -7.1875 4.210938 -7.09375 3.953125 -6.90625 C 3.691406 -6.71875 3.515625 -6.457031 3.421875 -6.125 C 3.359375 -5.894531 3.320312 -5.75 3.3125 -5.6875 C 3.300781 -5.613281 3.332031 -5.578125 3.40625 -5.578125 L 6.453125 -5.578125 C 6.515625 -5.578125 6.546875 -5.597656 6.546875 -5.640625 C 6.546875 -5.773438 6.519531 -5.914062 6.46875 -6.0625 C 6.363281 -6.40625 6.175781 -6.675781 5.90625 -6.875 C 5.644531 -7.082031 5.3125 -7.1875 4.90625 -7.1875 Z M 4.90625 -7.1875 "/></g></g></g><g fill="#79b84e" fill-opacity="1"><g transform="translate(97.357348, 87.716523)"><g><path d="M 5.515625 -9.34375 C 5.898438 -9.34375 6.21875 -9.269531 6.46875 -9.125 C 6.613281 -9.050781 6.664062 -8.925781 6.625 -8.75 L 6.296875 -6.859375 C 6.273438 -6.753906 6.238281 -6.6875 6.1875 -6.65625 C 6.132812 -6.632812 6.050781 -6.640625 5.9375 -6.671875 C 5.738281 -6.710938 5.5625 -6.734375 5.40625 -6.734375 C 5.320312 -6.734375 5.1875 -6.722656 5 -6.703125 C 4.570312 -6.671875 4.207031 -6.515625 3.90625 -6.234375 C 3.601562 -5.953125 3.453125 -5.578125 3.453125 -5.109375 L 3.453125 -0.296875 C 3.453125 -0.0976562 3.351562 0 3.15625 0 L 1.234375 0 C 1.035156 0 0.9375 -0.0976562 0.9375 -0.296875 L 0.9375 -8.90625 C 0.9375 -9.113281 1.035156 -9.21875 1.234375 -9.21875 L 3.15625 -9.21875 C 3.351562 -9.21875 3.453125 -9.113281 3.453125 -8.90625 L 3.453125 -8.359375 C 3.453125 -8.304688 3.460938 -8.273438 3.484375 -8.265625 C 3.515625 -8.253906 3.546875 -8.265625 3.578125 -8.296875 C 4.054688 -8.992188 4.703125 -9.34375 5.515625 -9.34375 Z M 5.515625 -9.34375 "/></g></g></g><g fill="#000000" fill-opacity="1"><g transform="translate(104.22882, 87.716523)"><g><path d="M 1.015625 1.75 C 0.921875 1.75 0.847656 1.71875 0.796875 1.65625 C 0.753906 1.601562 0.738281 1.53125 0.75 1.4375 L 1.328125 -2.546875 C 1.335938 -2.628906 1.367188 -2.695312 1.421875 -2.75 C 1.472656 -2.800781 1.550781 -2.828125 1.65625 -2.828125 L 3.28125 -2.828125 C 3.382812 -2.828125 3.457031 -2.796875 3.5 -2.734375 C 3.550781 -2.671875 3.566406 -2.585938 3.546875 -2.484375 L 2.46875 1.5 C 2.414062 1.664062 2.300781 1.75 2.125 1.75 Z M 1.015625 1.75 "/></g></g></g><g fill="#268fcd" fill-opacity="1"><g transform="translate(108.988913, 87.716523)"><g/></g></g><g fill="#268fcd" fill-opacity="1"><g transform="translate(112.572975, 87.716523)"><g><path d="M 9.15625 0 C 8.988281 0 8.875 -0.0820312 8.8125 -0.25 L 8.3125 -1.921875 C 8.300781 -1.972656 8.265625 -2 8.203125 -2 L 3.8125 -2 C 3.757812 -2 3.722656 -1.972656 3.703125 -1.921875 L 3.203125 -0.25 C 3.148438 -0.0820312 3.039062 0 2.875 0 L 0.78125 0 C 0.675781 0 0.597656 -0.03125 0.546875 -0.09375 C 0.503906 -0.164062 0.5 -0.25 0.53125 -0.34375 L 4.359375 -12.296875 C 4.410156 -12.460938 4.523438 -12.546875 4.703125 -12.546875 L 7.328125 -12.546875 C 7.492188 -12.546875 7.609375 -12.460938 7.671875 -12.296875 L 11.484375 -0.34375 C 11.492188 -0.3125 11.5 -0.273438 11.5 -0.234375 C 11.5 -0.160156 11.472656 -0.101562 11.421875 -0.0625 C 11.378906 -0.0195312 11.316406 0 11.234375 0 Z M 4.34375 -4.09375 C 4.320312 -4 4.347656 -3.953125 4.421875 -3.953125 L 7.59375 -3.953125 C 7.664062 -3.953125 7.695312 -4 7.6875 -4.09375 L 6.078125 -9.546875 C 6.066406 -9.597656 6.046875 -9.625 6.015625 -9.625 C 5.984375 -9.625 5.957031 -9.597656 5.9375 -9.546875 Z M 4.34375 -4.09375 "/></g></g></g><g fill="#268fcd" fill-opacity="1"><g transform="translate(124.5975, 87.716523)"><g><path d="M 6.5625 -8.90625 C 6.5625 -9.113281 6.660156 -9.21875 6.859375 -9.21875 L 8.78125 -9.21875 C 8.988281 -9.21875 9.09375 -9.113281 9.09375 -8.90625 L 9.09375 -0.828125 C 9.09375 0.734375 8.640625 1.847656 7.734375 2.515625 C 6.835938 3.191406 5.6875 3.53125 4.28125 3.53125 C 3.882812 3.53125 3.4375 3.5 2.9375 3.4375 C 2.757812 3.425781 2.671875 3.320312 2.671875 3.125 L 2.734375 1.453125 C 2.734375 1.359375 2.765625 1.28125 2.828125 1.21875 C 2.898438 1.164062 2.984375 1.15625 3.078125 1.1875 C 3.523438 1.238281 3.890625 1.265625 4.171875 1.265625 C 4.941406 1.265625 5.53125 1.097656 5.9375 0.765625 C 6.351562 0.429688 6.5625 -0.101562 6.5625 -0.84375 C 6.5625 -0.875 6.546875 -0.890625 6.515625 -0.890625 C 6.492188 -0.898438 6.46875 -0.890625 6.4375 -0.859375 C 5.988281 -0.378906 5.332031 -0.140625 4.46875 -0.140625 C 3.6875 -0.140625 2.96875 -0.328125 2.3125 -0.703125 C 1.664062 -1.078125 1.207031 -1.6875 0.9375 -2.53125 C 0.75 -3.070312 0.65625 -3.78125 0.65625 -4.65625 C 0.65625 -5.59375 0.765625 -6.351562 0.984375 -6.9375 C 1.234375 -7.664062 1.65625 -8.25 2.25 -8.6875 C 2.851562 -9.132812 3.550781 -9.359375 4.34375 -9.359375 C 5.238281 -9.359375 5.9375 -9.085938 6.4375 -8.546875 C 6.46875 -8.515625 6.492188 -8.503906 6.515625 -8.515625 C 6.546875 -8.523438 6.5625 -8.554688 6.5625 -8.609375 Z M 6.421875 -3.203125 C 6.515625 -3.566406 6.5625 -4.054688 6.5625 -4.671875 C 6.5625 -5.046875 6.546875 -5.332031 6.515625 -5.53125 C 6.492188 -5.738281 6.453125 -5.929688 6.390625 -6.109375 C 6.285156 -6.429688 6.109375 -6.691406 5.859375 -6.890625 C 5.609375 -7.085938 5.296875 -7.1875 4.921875 -7.1875 C 4.566406 -7.1875 4.265625 -7.085938 4.015625 -6.890625 C 3.765625 -6.691406 3.578125 -6.429688 3.453125 -6.109375 C 3.285156 -5.753906 3.203125 -5.269531 3.203125 -4.65625 C 3.203125 -3.988281 3.273438 -3.507812 3.421875 -3.21875 C 3.523438 -2.894531 3.710938 -2.632812 3.984375 -2.4375 C 4.253906 -2.25 4.578125 -2.15625 4.953125 -2.15625 C 5.328125 -2.15625 5.640625 -2.25 5.890625 -2.4375 C 6.140625 -2.632812 6.316406 -2.890625 6.421875 -3.203125 Z M 6.421875 -3.203125 "/></g></g></g><g fill="#268fcd" fill-opacity="1"><g transform="translate(134.561189, 87.716523)"><g><path d="M 5.375 -1.984375 C 6.164062 -2.023438 6.769531 -2.300781 7.1875 -2.8125 C 7.257812 -2.894531 7.335938 -2.9375 7.421875 -2.9375 C 7.492188 -2.9375 7.554688 -2.90625 7.609375 -2.84375 L 8.640625 -1.859375 C 8.710938 -1.785156 8.75 -1.71875 8.75 -1.65625 C 8.75 -1.5625 8.722656 -1.488281 8.671875 -1.4375 C 8.273438 -0.945312 7.769531 -0.5625 7.15625 -0.28125 C 6.539062 0 5.867188 0.140625 5.140625 0.140625 C 4.046875 0.140625 3.132812 -0.140625 2.40625 -0.703125 C 1.6875 -1.265625 1.203125 -2.035156 0.953125 -3.015625 C 0.804688 -3.535156 0.734375 -4.085938 0.734375 -4.671875 C 0.734375 -5.367188 0.800781 -5.957031 0.9375 -6.4375 C 1.175781 -7.320312 1.65625 -8.03125 2.375 -8.5625 C 3.09375 -9.101562 3.953125 -9.375 4.953125 -9.375 C 6.117188 -9.375 7.046875 -9.023438 7.734375 -8.328125 C 8.421875 -7.640625 8.863281 -6.664062 9.0625 -5.40625 C 9.113281 -5.019531 9.148438 -4.585938 9.171875 -4.109375 C 9.171875 -3.898438 9.070312 -3.796875 8.875 -3.796875 L 3.375 -3.796875 C 3.300781 -3.796875 3.265625 -3.757812 3.265625 -3.6875 C 3.296875 -3.4375 3.335938 -3.253906 3.390625 -3.140625 C 3.503906 -2.765625 3.738281 -2.476562 4.09375 -2.28125 C 4.445312 -2.082031 4.875 -1.984375 5.375 -1.984375 Z M 4.90625 -7.1875 C 4.53125 -7.1875 4.210938 -7.09375 3.953125 -6.90625 C 3.691406 -6.71875 3.515625 -6.457031 3.421875 -6.125 C 3.359375 -5.894531 3.320312 -5.75 3.3125 -5.6875 C 3.300781 -5.613281 3.332031 -5.578125 3.40625 -5.578125 L 6.453125 -5.578125 C 6.515625 -5.578125 6.546875 -5.597656 6.546875 -5.640625 C 6.546875 -5.773438 6.519531 -5.914062 6.46875 -6.0625 C 6.363281 -6.40625 6.175781 -6.675781 5.90625 -6.875 C 5.644531 -7.082031 5.3125 -7.1875 4.90625 -7.1875 Z M 4.90625 -7.1875 "/></g></g></g><g fill="#268fcd" fill-opacity="1"><g transform="translate(144.363592, 87.716523)"><g><path d="M 5.734375 -9.359375 C 6.691406 -9.359375 7.460938 -9.0625 8.046875 -8.46875 C 8.628906 -7.882812 8.921875 -7.09375 8.921875 -6.09375 L 8.921875 -0.296875 C 8.921875 -0.0976562 8.820312 0 8.625 0 L 6.703125 0 C 6.492188 0 6.390625 -0.0976562 6.390625 -0.296875 L 6.390625 -5.578125 C 6.390625 -6.054688 6.257812 -6.441406 6 -6.734375 C 5.738281 -7.035156 5.390625 -7.1875 4.953125 -7.1875 C 4.503906 -7.1875 4.140625 -7.035156 3.859375 -6.734375 C 3.585938 -6.441406 3.453125 -6.054688 3.453125 -5.578125 L 3.453125 -0.296875 C 3.453125 -0.0976562 3.351562 0 3.15625 0 L 1.234375 0 C 1.035156 0 0.9375 -0.0976562 0.9375 -0.296875 L 0.9375 -8.90625 C 0.9375 -9.113281 1.035156 -9.21875 1.234375 -9.21875 L 3.15625 -9.21875 C 3.351562 -9.21875 3.453125 -9.113281 3.453125 -8.90625 L 3.453125 -8.40625 C 3.453125 -8.351562 3.460938 -8.320312 3.484375 -8.3125 C 3.515625 -8.300781 3.539062 -8.316406 3.5625 -8.359375 C 4.050781 -9.023438 4.773438 -9.359375 5.734375 -9.359375 Z M 5.734375 -9.359375 "/></g></g></g><g fill="#268fcd" fill-opacity="1"><g transform="translate(154.165996, 87.716523)"><g><path d="M 6.21875 -7.484375 C 6.21875 -7.285156 6.117188 -7.1875 5.921875 -7.1875 L 4.296875 -7.1875 C 4.222656 -7.1875 4.1875 -7.148438 4.1875 -7.078125 L 4.1875 -3.375 C 4.1875 -2.976562 4.265625 -2.6875 4.421875 -2.5 C 4.585938 -2.3125 4.851562 -2.21875 5.21875 -2.21875 L 5.71875 -2.21875 C 5.914062 -2.21875 6.015625 -2.117188 6.015625 -1.921875 L 6.015625 -0.375 C 6.015625 -0.1875 5.914062 -0.078125 5.71875 -0.046875 C 5.257812 -0.0234375 4.929688 -0.015625 4.734375 -0.015625 C 3.742188 -0.015625 3.003906 -0.179688 2.515625 -0.515625 C 2.023438 -0.847656 1.769531 -1.472656 1.75 -2.390625 L 1.75 -7.078125 C 1.75 -7.148438 1.71875 -7.1875 1.65625 -7.1875 L 0.734375 -7.1875 C 0.535156 -7.1875 0.4375 -7.285156 0.4375 -7.484375 L 0.4375 -8.90625 C 0.4375 -9.113281 0.535156 -9.21875 0.734375 -9.21875 L 1.65625 -9.21875 C 1.71875 -9.21875 1.75 -9.25 1.75 -9.3125 L 1.75 -11.34375 C 1.75 -11.550781 1.851562 -11.65625 2.0625 -11.65625 L 3.890625 -11.65625 C 4.085938 -11.65625 4.1875 -11.550781 4.1875 -11.34375 L 4.1875 -9.3125 C 4.1875 -9.25 4.222656 -9.21875 4.296875 -9.21875 L 5.921875 -9.21875 C 6.117188 -9.21875 6.21875 -9.113281 6.21875 -8.90625 Z M 6.21875 -7.484375 "/></g></g></g><g fill="#268fcd" fill-opacity="1"><g transform="translate(160.975715, 87.716523)"><g><path d="M 5.375 -1.984375 C 6.164062 -2.023438 6.769531 -2.300781 7.1875 -2.8125 C 7.257812 -2.894531 7.335938 -2.9375 7.421875 -2.9375 C 7.492188 -2.9375 7.554688 -2.90625 7.609375 -2.84375 L 8.640625 -1.859375 C 8.710938 -1.785156 8.75 -1.71875 8.75 -1.65625 C 8.75 -1.5625 8.722656 -1.488281 8.671875 -1.4375 C 8.273438 -0.945312 7.769531 -0.5625 7.15625 -0.28125 C 6.539062 0 5.867188 0.140625 5.140625 0.140625 C 4.046875 0.140625 3.132812 -0.140625 2.40625 -0.703125 C 1.6875 -1.265625 1.203125 -2.035156 0.953125 -3.015625 C 0.804688 -3.535156 0.734375 -4.085938 0.734375 -4.671875 C 0.734375 -5.367188 0.800781 -5.957031 0.9375 -6.4375 C 1.175781 -7.320312 1.65625 -8.03125 2.375 -8.5625 C 3.09375 -9.101562 3.953125 -9.375 4.953125 -9.375 C 6.117188 -9.375 7.046875 -9.023438 7.734375 -8.328125 C 8.421875 -7.640625 8.863281 -6.664062 9.0625 -5.40625 C 9.113281 -5.019531 9.148438 -4.585938 9.171875 -4.109375 C 9.171875 -3.898438 9.070312 -3.796875 8.875 -3.796875 L 3.375 -3.796875 C 3.300781 -3.796875 3.265625 -3.757812 3.265625 -3.6875 C 3.296875 -3.4375 3.335938 -3.253906 3.390625 -3.140625 C 3.503906 -2.765625 3.738281 -2.476562 4.09375 -2.28125 C 4.445312 -2.082031 4.875 -1.984375 5.375 -1.984375 Z M 4.90625 -7.1875 C 4.53125 -7.1875 4.210938 -7.09375 3.953125 -6.90625 C 3.691406 -6.71875 3.515625 -6.457031 3.421875 -6.125 C 3.359375 -5.894531 3.320312 -5.75 3.3125 -5.6875 C 3.300781 -5.613281 3.332031 -5.578125 3.40625 -5.578125 L 6.453125 -5.578125 C 6.515625 -5.578125 6.546875 -5.597656 6.546875 -5.640625 C 6.546875 -5.773438 6.519531 -5.914062 6.46875 -6.0625 C 6.363281 -6.40625 6.175781 -6.675781 5.90625 -6.875 C 5.644531 -7.082031 5.3125 -7.1875 4.90625 -7.1875 Z M 4.90625 -7.1875 "/></g></g></g><g fill="#268fcd" fill-opacity="1"><g transform="translate(170.778118, 87.716523)"><g/></g></g><g fill="#268fcd" fill-opacity="1"><g transform="translate(174.362179, 87.716523)"><g><path d="M 6.484375 -12.234375 C 6.484375 -12.441406 6.585938 -12.546875 6.796875 -12.546875 L 8.703125 -12.546875 C 8.910156 -12.546875 9.015625 -12.441406 9.015625 -12.234375 L 9.015625 -0.296875 C 9.015625 -0.0976562 8.910156 0 8.703125 0 L 6.796875 0 C 6.585938 0 6.484375 -0.0976562 6.484375 -0.296875 L 6.484375 -0.78125 C 6.484375 -0.832031 6.46875 -0.859375 6.4375 -0.859375 C 6.40625 -0.867188 6.378906 -0.859375 6.359375 -0.828125 C 5.867188 -0.179688 5.1875 0.140625 4.3125 0.140625 C 3.5 0.140625 2.78125 -0.0976562 2.15625 -0.578125 C 1.53125 -1.066406 1.097656 -1.703125 0.859375 -2.484375 C 0.660156 -3.054688 0.5625 -3.773438 0.5625 -4.640625 C 0.5625 -5.523438 0.671875 -6.265625 0.890625 -6.859375 C 1.160156 -7.628906 1.59375 -8.238281 2.1875 -8.6875 C 2.789062 -9.144531 3.5 -9.375 4.3125 -9.375 C 5.195312 -9.375 5.878906 -9.082031 6.359375 -8.5 C 6.378906 -8.457031 6.40625 -8.441406 6.4375 -8.453125 C 6.46875 -8.472656 6.484375 -8.503906 6.484375 -8.546875 Z M 6.109375 -2.828125 C 6.347656 -3.273438 6.46875 -3.867188 6.46875 -4.609375 C 6.46875 -5.390625 6.34375 -6.003906 6.09375 -6.453125 C 5.789062 -6.921875 5.390625 -7.15625 4.890625 -7.15625 C 4.335938 -7.15625 3.921875 -6.925781 3.640625 -6.46875 C 3.347656 -5.988281 3.203125 -5.363281 3.203125 -4.59375 C 3.203125 -3.882812 3.328125 -3.296875 3.578125 -2.828125 C 3.867188 -2.316406 4.304688 -2.0625 4.890625 -2.0625 C 5.421875 -2.0625 5.828125 -2.316406 6.109375 -2.828125 Z M 6.109375 -2.828125 "/></g></g></g><g fill="#268fcd" fill-opacity="1"><g transform="translate(184.34379, 87.716523)"><g><path d="M 5.375 -1.984375 C 6.164062 -2.023438 6.769531 -2.300781 7.1875 -2.8125 C 7.257812 -2.894531 7.335938 -2.9375 7.421875 -2.9375 C 7.492188 -2.9375 7.554688 -2.90625 7.609375 -2.84375 L 8.640625 -1.859375 C 8.710938 -1.785156 8.75 -1.71875 8.75 -1.65625 C 8.75 -1.5625 8.722656 -1.488281 8.671875 -1.4375 C 8.273438 -0.945312 7.769531 -0.5625 7.15625 -0.28125 C 6.539062 0 5.867188 0.140625 5.140625 0.140625 C 4.046875 0.140625 3.132812 -0.140625 2.40625 -0.703125 C 1.6875 -1.265625 1.203125 -2.035156 0.953125 -3.015625 C 0.804688 -3.535156 0.734375 -4.085938 0.734375 -4.671875 C 0.734375 -5.367188 0.800781 -5.957031 0.9375 -6.4375 C 1.175781 -7.320312 1.65625 -8.03125 2.375 -8.5625 C 3.09375 -9.101562 3.953125 -9.375 4.953125 -9.375 C 6.117188 -9.375 7.046875 -9.023438 7.734375 -8.328125 C 8.421875 -7.640625 8.863281 -6.664062 9.0625 -5.40625 C 9.113281 -5.019531 9.148438 -4.585938 9.171875 -4.109375 C 9.171875 -3.898438 9.070312 -3.796875 8.875 -3.796875 L 3.375 -3.796875 C 3.300781 -3.796875 3.265625 -3.757812 3.265625 -3.6875 C 3.296875 -3.4375 3.335938 -3.253906 3.390625 -3.140625 C 3.503906 -2.765625 3.738281 -2.476562 4.09375 -2.28125 C 4.445312 -2.082031 4.875 -1.984375 5.375 -1.984375 Z M 4.90625 -7.1875 C 4.53125 -7.1875 4.210938 -7.09375 3.953125 -6.90625 C 3.691406 -6.71875 3.515625 -6.457031 3.421875 -6.125 C 3.359375 -5.894531 3.320312 -5.75 3.3125 -5.6875 C 3.300781 -5.613281 3.332031 -5.578125 3.40625 -5.578125 L 6.453125 -5.578125 C 6.515625 -5.578125 6.546875 -5.597656 6.546875 -5.640625 C 6.546875 -5.773438 6.519531 -5.914062 6.46875 -6.0625 C 6.363281 -6.40625 6.175781 -6.675781 5.90625 -6.875 C 5.644531 -7.082031 5.3125 -7.1875 4.90625 -7.1875 Z M 4.90625 -7.1875 "/></g></g></g><g fill="#268fcd" fill-opacity="1"><g transform="translate(194.146193, 87.716523)"><g/></g></g><g fill="#268fcd" fill-opacity="1"><g transform="translate(197.730255, 87.716523)"><g><path d="M 5.34375 0.140625 C 4.40625 0.140625 3.582031 -0.0078125 2.875 -0.3125 C 2.175781 -0.625 1.632812 -1.0625 1.25 -1.625 C 0.875 -2.1875 0.6875 -2.847656 0.6875 -3.609375 L 0.6875 -3.90625 C 0.6875 -4.113281 0.785156 -4.21875 0.984375 -4.21875 L 2.875 -4.21875 C 3.070312 -4.21875 3.171875 -4.140625 3.171875 -3.984375 L 3.171875 -3.734375 C 3.171875 -3.253906 3.390625 -2.847656 3.828125 -2.515625 C 4.265625 -2.191406 4.832031 -2.03125 5.53125 -2.03125 C 6.164062 -2.03125 6.632812 -2.160156 6.9375 -2.421875 C 7.25 -2.691406 7.40625 -3.023438 7.40625 -3.421875 C 7.40625 -3.710938 7.304688 -3.953125 7.109375 -4.140625 C 6.921875 -4.335938 6.664062 -4.507812 6.34375 -4.65625 C 6.019531 -4.8125 5.5 -5.019531 4.78125 -5.28125 C 3.96875 -5.5625 3.285156 -5.84375 2.734375 -6.125 C 2.191406 -6.414062 1.726562 -6.804688 1.34375 -7.296875 C 0.957031 -7.796875 0.765625 -8.410156 0.765625 -9.140625 C 0.765625 -9.859375 0.945312 -10.484375 1.3125 -11.015625 C 1.6875 -11.554688 2.207031 -11.96875 2.875 -12.25 C 3.539062 -12.539062 4.296875 -12.6875 5.140625 -12.6875 C 6.046875 -12.6875 6.859375 -12.523438 7.578125 -12.203125 C 8.296875 -11.878906 8.851562 -11.425781 9.25 -10.84375 C 9.65625 -10.269531 9.859375 -9.597656 9.859375 -8.828125 L 9.859375 -8.65625 C 9.859375 -8.457031 9.753906 -8.359375 9.546875 -8.359375 L 7.671875 -8.359375 C 7.460938 -8.359375 7.359375 -8.414062 7.359375 -8.53125 L 7.359375 -8.703125 C 7.359375 -9.210938 7.148438 -9.640625 6.734375 -9.984375 C 6.328125 -10.335938 5.765625 -10.515625 5.046875 -10.515625 C 4.472656 -10.515625 4.03125 -10.394531 3.71875 -10.15625 C 3.414062 -9.914062 3.265625 -9.585938 3.265625 -9.171875 C 3.265625 -8.878906 3.351562 -8.628906 3.53125 -8.421875 C 3.707031 -8.222656 3.976562 -8.035156 4.34375 -7.859375 C 4.707031 -7.691406 5.273438 -7.476562 6.046875 -7.21875 C 6.878906 -6.90625 7.539062 -6.632812 8.03125 -6.40625 C 8.519531 -6.175781 8.957031 -5.820312 9.34375 -5.34375 C 9.726562 -4.863281 9.921875 -4.25 9.921875 -3.5 C 9.921875 -2.769531 9.734375 -2.128906 9.359375 -1.578125 C 8.984375 -1.023438 8.453125 -0.597656 7.765625 -0.296875 C 7.078125 -0.00390625 6.269531 0.140625 5.34375 0.140625 Z M 5.34375 0.140625 "/></g></g></g><g fill="#268fcd" fill-opacity="1"><g transform="translate(208.339075, 87.716523)"><g><path d="M 5.375 -1.984375 C 6.164062 -2.023438 6.769531 -2.300781 7.1875 -2.8125 C 7.257812 -2.894531 7.335938 -2.9375 7.421875 -2.9375 C 7.492188 -2.9375 7.554688 -2.90625 7.609375 -2.84375 L 8.640625 -1.859375 C 8.710938 -1.785156 8.75 -1.71875 8.75 -1.65625 C 8.75 -1.5625 8.722656 -1.488281 8.671875 -1.4375 C 8.273438 -0.945312 7.769531 -0.5625 7.15625 -0.28125 C 6.539062 0 5.867188 0.140625 5.140625 0.140625 C 4.046875 0.140625 3.132812 -0.140625 2.40625 -0.703125 C 1.6875 -1.265625 1.203125 -2.035156 0.953125 -3.015625 C 0.804688 -3.535156 0.734375 -4.085938 0.734375 -4.671875 C 0.734375 -5.367188 0.800781 -5.957031 0.9375 -6.4375 C 1.175781 -7.320312 1.65625 -8.03125 2.375 -8.5625 C 3.09375 -9.101562 3.953125 -9.375 4.953125 -9.375 C 6.117188 -9.375 7.046875 -9.023438 7.734375 -8.328125 C 8.421875 -7.640625 8.863281 -6.664062 9.0625 -5.40625 C 9.113281 -5.019531 9.148438 -4.585938 9.171875 -4.109375 C 9.171875 -3.898438 9.070312 -3.796875 8.875 -3.796875 L 3.375 -3.796875 C 3.300781 -3.796875 3.265625 -3.757812 3.265625 -3.6875 C 3.296875 -3.4375 3.335938 -3.253906 3.390625 -3.140625 C 3.503906 -2.765625 3.738281 -2.476562 4.09375 -2.28125 C 4.445312 -2.082031 4.875 -1.984375 5.375 -1.984375 Z M 4.90625 -7.1875 C 4.53125 -7.1875 4.210938 -7.09375 3.953125 -6.90625 C 3.691406 -6.71875 3.515625 -6.457031 3.421875 -6.125 C 3.359375 -5.894531 3.320312 -5.75 3.3125 -5.6875 C 3.300781 -5.613281 3.332031 -5.578125 3.40625 -5.578125 L 6.453125 -5.578125 C 6.515625 -5.578125 6.546875 -5.597656 6.546875 -5.640625 C 6.546875 -5.773438 6.519531 -5.914062 6.46875 -6.0625 C 6.363281 -6.40625 6.175781 -6.675781 5.90625 -6.875 C 5.644531 -7.082031 5.3125 -7.1875 4.90625 -7.1875 Z M 4.90625 -7.1875 "/></g></g></g><g fill="#268fcd" fill-opacity="1"><g transform="translate(218.141478, 87.716523)"><g><path d="M 6.5625 -8.90625 C 6.5625 -9.113281 6.660156 -9.21875 6.859375 -9.21875 L 8.78125 -9.21875 C 8.988281 -9.21875 9.09375 -9.113281 9.09375 -8.90625 L 9.09375 -0.828125 C 9.09375 0.734375 8.640625 1.847656 7.734375 2.515625 C 6.835938 3.191406 5.6875 3.53125 4.28125 3.53125 C 3.882812 3.53125 3.4375 3.5 2.9375 3.4375 C 2.757812 3.425781 2.671875 3.320312 2.671875 3.125 L 2.734375 1.453125 C 2.734375 1.359375 2.765625 1.28125 2.828125 1.21875 C 2.898438 1.164062 2.984375 1.15625 3.078125 1.1875 C 3.523438 1.238281 3.890625 1.265625 4.171875 1.265625 C 4.941406 1.265625 5.53125 1.097656 5.9375 0.765625 C 6.351562 0.429688 6.5625 -0.101562 6.5625 -0.84375 C 6.5625 -0.875 6.546875 -0.890625 6.515625 -0.890625 C 6.492188 -0.898438 6.46875 -0.890625 6.4375 -0.859375 C 5.988281 -0.378906 5.332031 -0.140625 4.46875 -0.140625 C 3.6875 -0.140625 2.96875 -0.328125 2.3125 -0.703125 C 1.664062 -1.078125 1.207031 -1.6875 0.9375 -2.53125 C 0.75 -3.070312 0.65625 -3.78125 0.65625 -4.65625 C 0.65625 -5.59375 0.765625 -6.351562 0.984375 -6.9375 C 1.234375 -7.664062 1.65625 -8.25 2.25 -8.6875 C 2.851562 -9.132812 3.550781 -9.359375 4.34375 -9.359375 C 5.238281 -9.359375 5.9375 -9.085938 6.4375 -8.546875 C 6.46875 -8.515625 6.492188 -8.503906 6.515625 -8.515625 C 6.546875 -8.523438 6.5625 -8.554688 6.5625 -8.609375 Z M 6.421875 -3.203125 C 6.515625 -3.566406 6.5625 -4.054688 6.5625 -4.671875 C 6.5625 -5.046875 6.546875 -5.332031 6.515625 -5.53125 C 6.492188 -5.738281 6.453125 -5.929688 6.390625 -6.109375 C 6.285156 -6.429688 6.109375 -6.691406 5.859375 -6.890625 C 5.609375 -7.085938 5.296875 -7.1875 4.921875 -7.1875 C 4.566406 -7.1875 4.265625 -7.085938 4.015625 -6.890625 C 3.765625 -6.691406 3.578125 -6.429688 3.453125 -6.109375 C 3.285156 -5.753906 3.203125 -5.269531 3.203125 -4.65625 C 3.203125 -3.988281 3.273438 -3.507812 3.421875 -3.21875 C 3.523438 -2.894531 3.710938 -2.632812 3.984375 -2.4375 C 4.253906 -2.25 4.578125 -2.15625 4.953125 -2.15625 C 5.328125 -2.15625 5.640625 -2.25 5.890625 -2.4375 C 6.140625 -2.632812 6.316406 -2.890625 6.421875 -3.203125 Z M 6.421875 -3.203125 "/></g></g></g><g fill="#268fcd" fill-opacity="1"><g transform="translate(228.105167, 87.716523)"><g><path d="M 6.3125 -8.90625 C 6.3125 -9.113281 6.410156 -9.21875 6.609375 -9.21875 L 8.53125 -9.21875 C 8.726562 -9.21875 8.828125 -9.113281 8.828125 -8.90625 L 8.828125 -0.296875 C 8.828125 -0.0976562 8.726562 0 8.53125 0 L 6.609375 0 C 6.410156 0 6.3125 -0.0976562 6.3125 -0.296875 L 6.3125 -0.78125 C 6.3125 -0.832031 6.296875 -0.859375 6.265625 -0.859375 C 6.234375 -0.867188 6.207031 -0.859375 6.1875 -0.828125 C 5.71875 -0.191406 4.984375 0.125 3.984375 0.125 C 3.066406 0.125 2.316406 -0.144531 1.734375 -0.6875 C 1.148438 -1.238281 0.859375 -2.015625 0.859375 -3.015625 L 0.859375 -8.90625 C 0.859375 -9.113281 0.960938 -9.21875 1.171875 -9.21875 L 3.0625 -9.21875 C 3.269531 -9.21875 3.375 -9.113281 3.375 -8.90625 L 3.375 -3.640625 C 3.375 -3.160156 3.5 -2.769531 3.75 -2.46875 C 4.007812 -2.175781 4.367188 -2.03125 4.828125 -2.03125 C 5.234375 -2.03125 5.566406 -2.148438 5.828125 -2.390625 C 6.085938 -2.640625 6.25 -2.957031 6.3125 -3.34375 Z M 6.3125 -8.90625 "/></g></g></g><g fill="#268fcd" fill-opacity="1"><g transform="translate(237.871727, 87.716523)"><g><path d="M 5.515625 -9.34375 C 5.898438 -9.34375 6.21875 -9.269531 6.46875 -9.125 C 6.613281 -9.050781 6.664062 -8.925781 6.625 -8.75 L 6.296875 -6.859375 C 6.273438 -6.753906 6.238281 -6.6875 6.1875 -6.65625 C 6.132812 -6.632812 6.050781 -6.640625 5.9375 -6.671875 C 5.738281 -6.710938 5.5625 -6.734375 5.40625 -6.734375 C 5.320312 -6.734375 5.1875 -6.722656 5 -6.703125 C 4.570312 -6.671875 4.207031 -6.515625 3.90625 -6.234375 C 3.601562 -5.953125 3.453125 -5.578125 3.453125 -5.109375 L 3.453125 -0.296875 C 3.453125 -0.0976562 3.351562 0 3.15625 0 L 1.234375 0 C 1.035156 0 0.9375 -0.0976562 0.9375 -0.296875 L 0.9375 -8.90625 C 0.9375 -9.113281 1.035156 -9.21875 1.234375 -9.21875 L 3.15625 -9.21875 C 3.351562 -9.21875 3.453125 -9.113281 3.453125 -8.90625 L 3.453125 -8.359375 C 3.453125 -8.304688 3.460938 -8.273438 3.484375 -8.265625 C 3.515625 -8.253906 3.546875 -8.265625 3.578125 -8.296875 C 4.054688 -8.992188 4.703125 -9.34375 5.515625 -9.34375 Z M 5.515625 -9.34375 "/></g></g></g><g fill="#268fcd" fill-opacity="1"><g transform="translate(244.7352, 87.716523)"><g><path d="M 5.015625 0.140625 C 4.003906 0.140625 3.140625 -0.117188 2.421875 -0.640625 C 1.703125 -1.171875 1.210938 -1.890625 0.953125 -2.796875 C 0.785156 -3.359375 0.703125 -3.96875 0.703125 -4.625 C 0.703125 -5.351562 0.789062 -5.988281 0.96875 -6.53125 C 1.238281 -7.40625 1.726562 -8.09375 2.4375 -8.59375 C 3.15625 -9.101562 4.019531 -9.359375 5.03125 -9.359375 C 6.007812 -9.359375 6.847656 -9.101562 7.546875 -8.59375 C 8.253906 -8.09375 8.742188 -7.410156 9.015625 -6.546875 C 9.191406 -5.992188 9.28125 -5.363281 9.28125 -4.65625 C 9.28125 -4.039062 9.203125 -3.4375 9.046875 -2.84375 C 8.773438 -1.914062 8.28125 -1.1875 7.5625 -0.65625 C 6.851562 -0.125 6.003906 0.140625 5.015625 0.140625 Z M 5.015625 -2.03125 C 5.398438 -2.03125 5.726562 -2.144531 6 -2.375 C 6.28125 -2.613281 6.476562 -2.945312 6.59375 -3.375 C 6.6875 -3.695312 6.734375 -4.113281 6.734375 -4.625 C 6.734375 -5.125 6.6875 -5.546875 6.59375 -5.890625 C 6.476562 -6.296875 6.28125 -6.613281 6 -6.84375 C 5.726562 -7.070312 5.390625 -7.1875 4.984375 -7.1875 C 4.585938 -7.1875 4.25 -7.070312 3.96875 -6.84375 C 3.695312 -6.613281 3.503906 -6.296875 3.390625 -5.890625 C 3.296875 -5.546875 3.25 -5.125 3.25 -4.625 C 3.25 -4.132812 3.296875 -3.71875 3.390625 -3.375 C 3.503906 -2.945312 3.703125 -2.613281 3.984375 -2.375 C 4.265625 -2.144531 4.609375 -2.03125 5.015625 -2.03125 Z M 5.015625 -2.03125 "/></g></g></g><g fill="#268fcd" fill-opacity="1"><g transform="translate(254.716811, 87.716523)"><g><path d="M 4.609375 0.125 C 3.804688 0.125 3.101562 0.0078125 2.5 -0.21875 C 1.90625 -0.445312 1.445312 -0.765625 1.125 -1.171875 C 0.800781 -1.578125 0.640625 -2.035156 0.640625 -2.546875 L 0.640625 -2.640625 C 0.640625 -2.835938 0.742188 -2.9375 0.953125 -2.9375 L 2.765625 -2.9375 C 2.960938 -2.9375 3.0625 -2.898438 3.0625 -2.828125 L 3.0625 -2.703125 C 3.0625 -2.441406 3.203125 -2.21875 3.484375 -2.03125 C 3.773438 -1.84375 4.144531 -1.75 4.59375 -1.75 C 5 -1.75 5.328125 -1.828125 5.578125 -1.984375 C 5.828125 -2.140625 5.953125 -2.34375 5.953125 -2.59375 C 5.953125 -2.8125 5.84375 -2.972656 5.625 -3.078125 C 5.414062 -3.191406 5.0625 -3.304688 4.5625 -3.421875 C 3.976562 -3.578125 3.546875 -3.710938 3.265625 -3.828125 C 2.484375 -4.097656 1.863281 -4.421875 1.40625 -4.796875 C 0.957031 -5.179688 0.734375 -5.734375 0.734375 -6.453125 C 0.734375 -7.335938 1.078125 -8.039062 1.765625 -8.5625 C 2.460938 -9.082031 3.375 -9.34375 4.5 -9.34375 C 5.257812 -9.34375 5.929688 -9.21875 6.515625 -8.96875 C 7.097656 -8.726562 7.546875 -8.382812 7.859375 -7.9375 C 8.171875 -7.5 8.328125 -7 8.328125 -6.4375 C 8.328125 -6.375 8.300781 -6.320312 8.25 -6.28125 C 8.195312 -6.238281 8.125 -6.21875 8.03125 -6.21875 L 6.265625 -6.21875 C 6.066406 -6.21875 5.96875 -6.253906 5.96875 -6.328125 L 5.96875 -6.4375 C 5.96875 -6.695312 5.832031 -6.914062 5.5625 -7.09375 C 5.300781 -7.269531 4.953125 -7.359375 4.515625 -7.359375 C 4.117188 -7.359375 3.789062 -7.285156 3.53125 -7.140625 C 3.28125 -7.003906 3.15625 -6.8125 3.15625 -6.5625 C 3.15625 -6.320312 3.273438 -6.140625 3.515625 -6.015625 C 3.765625 -5.898438 4.171875 -5.773438 4.734375 -5.640625 C 5.078125 -5.566406 5.410156 -5.476562 5.734375 -5.375 C 6.597656 -5.125 7.273438 -4.800781 7.765625 -4.40625 C 8.253906 -4.007812 8.5 -3.4375 8.5 -2.6875 C 8.5 -1.800781 8.144531 -1.109375 7.4375 -0.609375 C 6.726562 -0.117188 5.785156 0.125 4.609375 0.125 Z M 4.609375 0.125 "/></g></g></g><g fill="#268fcd" fill-opacity="1"><g transform="translate(263.730719, 87.716523)"><g/></g></g><g fill="#268fcd" fill-opacity="1"><g transform="translate(267.31478, 87.716523)"><g><path d="M 0.875 3.5625 C 0.789062 3.5625 0.75 3.460938 0.75 3.265625 L 0.75 1.796875 C 0.75 1.585938 0.785156 1.484375 0.859375 1.484375 L 0.96875 1.484375 C 1.707031 1.484375 2.234375 1.390625 2.546875 1.203125 C 2.867188 1.023438 3.101562 0.648438 3.25 0.078125 C 3.269531 0.015625 3.269531 -0.0351562 3.25 -0.078125 L 0.359375 -8.875 C 0.347656 -8.894531 0.34375 -8.929688 0.34375 -8.984375 C 0.34375 -9.054688 0.363281 -9.113281 0.40625 -9.15625 C 0.457031 -9.195312 0.523438 -9.21875 0.609375 -9.21875 L 2.671875 -9.21875 C 2.835938 -9.21875 2.953125 -9.132812 3.015625 -8.96875 L 4.484375 -3.625 C 4.492188 -3.570312 4.515625 -3.546875 4.546875 -3.546875 C 4.585938 -3.546875 4.613281 -3.570312 4.625 -3.625 L 6.015625 -8.9375 C 6.054688 -9.125 6.171875 -9.21875 6.359375 -9.21875 L 8.421875 -9.21875 C 8.523438 -9.21875 8.601562 -9.179688 8.65625 -9.109375 C 8.707031 -9.046875 8.710938 -8.96875 8.671875 -8.875 L 5.609375 0.34375 C 5.304688 1.21875 5 1.867188 4.6875 2.296875 C 4.382812 2.734375 3.953125 3.050781 3.390625 3.25 C 2.828125 3.457031 2.03125 3.5625 1 3.5625 Z M 0.875 3.5625 "/></g></g></g><g fill="#268fcd" fill-opacity="1"><g transform="translate(276.364532, 87.716523)"><g/></g></g><g fill="#268fcd" fill-opacity="1"><g transform="translate(279.948593, 87.716523)"><g><path d="M 9.78125 -10.6875 C 9.78125 -10.476562 9.679688 -10.375 9.484375 -10.375 L 3.734375 -10.375 C 3.660156 -10.375 3.625 -10.335938 3.625 -10.265625 L 3.625 -7.53125 C 3.625 -7.457031 3.660156 -7.421875 3.734375 -7.421875 L 7.46875 -7.421875 C 7.675781 -7.421875 7.78125 -7.316406 7.78125 -7.109375 L 7.78125 -5.5625 C 7.78125 -5.351562 7.675781 -5.25 7.46875 -5.25 L 3.734375 -5.25 C 3.660156 -5.25 3.625 -5.210938 3.625 -5.140625 L 3.625 -0.296875 C 3.625 -0.0976562 3.519531 0 3.3125 0 L 1.390625 0 C 1.191406 0 1.09375 -0.0976562 1.09375 -0.296875 L 1.09375 -12.234375 C 1.09375 -12.441406 1.191406 -12.546875 1.390625 -12.546875 L 9.484375 -12.546875 C 9.679688 -12.546875 9.78125 -12.441406 9.78125 -12.234375 Z M 9.78125 -10.6875 "/></g></g></g><g fill="#268fcd" fill-opacity="1"><g transform="translate(289.983958, 87.716523)"><g><path d="M 2.328125 -10.09375 C 1.878906 -10.09375 1.507812 -10.234375 1.21875 -10.515625 C 0.925781 -10.796875 0.78125 -11.15625 0.78125 -11.59375 C 0.78125 -12.039062 0.925781 -12.398438 1.21875 -12.671875 C 1.507812 -12.953125 1.878906 -13.09375 2.328125 -13.09375 C 2.796875 -13.09375 3.171875 -12.957031 3.453125 -12.6875 C 3.734375 -12.414062 3.875 -12.050781 3.875 -11.59375 C 3.875 -11.144531 3.734375 -10.78125 3.453125 -10.5 C 3.171875 -10.226562 2.796875 -10.09375 2.328125 -10.09375 Z M 1.375 0 C 1.175781 0 1.078125 -0.0976562 1.078125 -0.296875 L 1.078125 -8.90625 C 1.078125 -9.113281 1.175781 -9.21875 1.375 -9.21875 L 3.296875 -9.21875 C 3.503906 -9.21875 3.609375 -9.113281 3.609375 -8.90625 L 3.609375 -0.296875 C 3.609375 -0.0976562 3.503906 0 3.296875 0 Z M 1.375 0 "/></g></g></g><g fill="#268fcd" fill-opacity="1"><g transform="translate(294.643232, 87.716523)"><g><path d="M 4.625 -9.359375 C 5.394531 -9.359375 6.082031 -9.222656 6.6875 -8.953125 C 7.300781 -8.679688 7.78125 -8.3125 8.125 -7.84375 C 8.46875 -7.382812 8.640625 -6.867188 8.640625 -6.296875 L 8.640625 -0.296875 C 8.640625 -0.0976562 8.535156 0 8.328125 0 L 6.421875 0 C 6.210938 0 6.109375 -0.0976562 6.109375 -0.296875 L 6.109375 -0.734375 C 6.109375 -0.785156 6.097656 -0.8125 6.078125 -0.8125 C 6.054688 -0.820312 6.023438 -0.804688 5.984375 -0.765625 C 5.429688 -0.160156 4.613281 0.140625 3.53125 0.140625 C 2.613281 0.140625 1.875 -0.0820312 1.3125 -0.53125 C 0.75 -0.988281 0.46875 -1.660156 0.46875 -2.546875 C 0.46875 -3.460938 0.789062 -4.175781 1.4375 -4.6875 C 2.082031 -5.195312 3 -5.453125 4.1875 -5.453125 L 6 -5.453125 C 6.070312 -5.453125 6.109375 -5.488281 6.109375 -5.5625 L 6.109375 -5.9375 C 6.109375 -6.332031 5.984375 -6.640625 5.734375 -6.859375 C 5.492188 -7.078125 5.140625 -7.1875 4.671875 -7.1875 C 4.316406 -7.1875 4.019531 -7.125 3.78125 -7 C 3.550781 -6.882812 3.394531 -6.71875 3.3125 -6.5 C 3.238281 -6.332031 3.117188 -6.253906 2.953125 -6.265625 L 0.96875 -6.53125 C 0.875 -6.539062 0.796875 -6.566406 0.734375 -6.609375 C 0.679688 -6.648438 0.664062 -6.707031 0.6875 -6.78125 C 0.738281 -7.269531 0.941406 -7.707031 1.296875 -8.09375 C 1.648438 -8.488281 2.113281 -8.796875 2.6875 -9.015625 C 3.269531 -9.242188 3.914062 -9.359375 4.625 -9.359375 Z M 4.265625 -1.734375 C 4.773438 -1.734375 5.207031 -1.867188 5.5625 -2.140625 C 5.925781 -2.421875 6.109375 -2.773438 6.109375 -3.203125 L 6.109375 -3.828125 C 6.109375 -3.898438 6.070312 -3.9375 6 -3.9375 L 4.734375 -3.9375 C 4.191406 -3.9375 3.765625 -3.832031 3.453125 -3.625 C 3.148438 -3.425781 3 -3.144531 3 -2.78125 C 3 -2.457031 3.113281 -2.203125 3.34375 -2.015625 C 3.570312 -1.828125 3.878906 -1.734375 4.265625 -1.734375 Z M 4.265625 -1.734375 "/></g></g></g><g fill="#268fcd" fill-opacity="1"><g transform="translate(304.105153, 87.716523)"><g><path d="M 5.734375 -9.359375 C 6.691406 -9.359375 7.460938 -9.0625 8.046875 -8.46875 C 8.628906 -7.882812 8.921875 -7.09375 8.921875 -6.09375 L 8.921875 -0.296875 C 8.921875 -0.0976562 8.820312 0 8.625 0 L 6.703125 0 C 6.492188 0 6.390625 -0.0976562 6.390625 -0.296875 L 6.390625 -5.578125 C 6.390625 -6.054688 6.257812 -6.441406 6 -6.734375 C 5.738281 -7.035156 5.390625 -7.1875 4.953125 -7.1875 C 4.503906 -7.1875 4.140625 -7.035156 3.859375 -6.734375 C 3.585938 -6.441406 3.453125 -6.054688 3.453125 -5.578125 L 3.453125 -0.296875 C 3.453125 -0.0976562 3.351562 0 3.15625 0 L 1.234375 0 C 1.035156 0 0.9375 -0.0976562 0.9375 -0.296875 L 0.9375 -8.90625 C 0.9375 -9.113281 1.035156 -9.21875 1.234375 -9.21875 L 3.15625 -9.21875 C 3.351562 -9.21875 3.453125 -9.113281 3.453125 -8.90625 L 3.453125 -8.40625 C 3.453125 -8.351562 3.460938 -8.320312 3.484375 -8.3125 C 3.515625 -8.300781 3.539062 -8.316406 3.5625 -8.359375 C 4.050781 -9.023438 4.773438 -9.359375 5.734375 -9.359375 Z M 5.734375 -9.359375 "/></g></g></g><g fill="#268fcd" fill-opacity="1"><g transform="translate(313.907556, 87.716523)"><g><path d="M 0.734375 0 C 0.535156 0 0.4375 -0.0976562 0.4375 -0.296875 L 0.4375 -2.078125 C 0.4375 -2.222656 0.484375 -2.347656 0.578125 -2.453125 L 4.546875 -6.8125 C 4.578125 -6.84375 4.585938 -6.867188 4.578125 -6.890625 C 4.566406 -6.921875 4.539062 -6.9375 4.5 -6.9375 L 0.84375 -6.9375 C 0.632812 -6.9375 0.53125 -7.035156 0.53125 -7.234375 L 0.53125 -8.90625 C 0.53125 -9.113281 0.632812 -9.21875 0.84375 -9.21875 L 7.359375 -9.21875 C 7.566406 -9.21875 7.671875 -9.113281 7.671875 -8.90625 L 7.671875 -7.15625 C 7.671875 -7.007812 7.625 -6.882812 7.53125 -6.78125 L 3.421875 -2.421875 C 3.398438 -2.378906 3.390625 -2.347656 3.390625 -2.328125 C 3.398438 -2.304688 3.429688 -2.296875 3.484375 -2.296875 L 7.453125 -2.296875 C 7.660156 -2.296875 7.765625 -2.191406 7.765625 -1.984375 L 7.765625 -0.296875 C 7.765625 -0.0976562 7.660156 0 7.453125 0 Z M 0.734375 0 "/></g></g></g><g fill="#268fcd" fill-opacity="1"><g transform="translate(322.150902, 87.716523)"><g><path d="M 4.625 -9.359375 C 5.394531 -9.359375 6.082031 -9.222656 6.6875 -8.953125 C 7.300781 -8.679688 7.78125 -8.3125 8.125 -7.84375 C 8.46875 -7.382812 8.640625 -6.867188 8.640625 -6.296875 L 8.640625 -0.296875 C 8.640625 -0.0976562 8.535156 0 8.328125 0 L 6.421875 0 C 6.210938 0 6.109375 -0.0976562 6.109375 -0.296875 L 6.109375 -0.734375 C 6.109375 -0.785156 6.097656 -0.8125 6.078125 -0.8125 C 6.054688 -0.820312 6.023438 -0.804688 5.984375 -0.765625 C 5.429688 -0.160156 4.613281 0.140625 3.53125 0.140625 C 2.613281 0.140625 1.875 -0.0820312 1.3125 -0.53125 C 0.75 -0.988281 0.46875 -1.660156 0.46875 -2.546875 C 0.46875 -3.460938 0.789062 -4.175781 1.4375 -4.6875 C 2.082031 -5.195312 3 -5.453125 4.1875 -5.453125 L 6 -5.453125 C 6.070312 -5.453125 6.109375 -5.488281 6.109375 -5.5625 L 6.109375 -5.9375 C 6.109375 -6.332031 5.984375 -6.640625 5.734375 -6.859375 C 5.492188 -7.078125 5.140625 -7.1875 4.671875 -7.1875 C 4.316406 -7.1875 4.019531 -7.125 3.78125 -7 C 3.550781 -6.882812 3.394531 -6.71875 3.3125 -6.5 C 3.238281 -6.332031 3.117188 -6.253906 2.953125 -6.265625 L 0.96875 -6.53125 C 0.875 -6.539062 0.796875 -6.566406 0.734375 -6.609375 C 0.679688 -6.648438 0.664062 -6.707031 0.6875 -6.78125 C 0.738281 -7.269531 0.941406 -7.707031 1.296875 -8.09375 C 1.648438 -8.488281 2.113281 -8.796875 2.6875 -9.015625 C 3.269531 -9.242188 3.914062 -9.359375 4.625 -9.359375 Z M 4.265625 -1.734375 C 4.773438 -1.734375 5.207031 -1.867188 5.5625 -2.140625 C 5.925781 -2.421875 6.109375 -2.773438 6.109375 -3.203125 L 6.109375 -3.828125 C 6.109375 -3.898438 6.070312 -3.9375 6 -3.9375 L 4.734375 -3.9375 C 4.191406 -3.9375 3.765625 -3.832031 3.453125 -3.625 C 3.148438 -3.425781 3 -3.144531 3 -2.78125 C 3 -2.457031 3.113281 -2.203125 3.34375 -2.015625 C 3.570312 -1.828125 3.878906 -1.734375 4.265625 -1.734375 Z M 4.265625 -1.734375 "/></g></g></g><g fill="#268fcd" fill-opacity="1"><g transform="translate(331.612823, 87.716523)"><g><path d="M 4.609375 0.125 C 3.804688 0.125 3.101562 0.0078125 2.5 -0.21875 C 1.90625 -0.445312 1.445312 -0.765625 1.125 -1.171875 C 0.800781 -1.578125 0.640625 -2.035156 0.640625 -2.546875 L 0.640625 -2.640625 C 0.640625 -2.835938 0.742188 -2.9375 0.953125 -2.9375 L 2.765625 -2.9375 C 2.960938 -2.9375 3.0625 -2.898438 3.0625 -2.828125 L 3.0625 -2.703125 C 3.0625 -2.441406 3.203125 -2.21875 3.484375 -2.03125 C 3.773438 -1.84375 4.144531 -1.75 4.59375 -1.75 C 5 -1.75 5.328125 -1.828125 5.578125 -1.984375 C 5.828125 -2.140625 5.953125 -2.34375 5.953125 -2.59375 C 5.953125 -2.8125 5.84375 -2.972656 5.625 -3.078125 C 5.414062 -3.191406 5.0625 -3.304688 4.5625 -3.421875 C 3.976562 -3.578125 3.546875 -3.710938 3.265625 -3.828125 C 2.484375 -4.097656 1.863281 -4.421875 1.40625 -4.796875 C 0.957031 -5.179688 0.734375 -5.734375 0.734375 -6.453125 C 0.734375 -7.335938 1.078125 -8.039062 1.765625 -8.5625 C 2.460938 -9.082031 3.375 -9.34375 4.5 -9.34375 C 5.257812 -9.34375 5.929688 -9.21875 6.515625 -8.96875 C 7.097656 -8.726562 7.546875 -8.382812 7.859375 -7.9375 C 8.171875 -7.5 8.328125 -7 8.328125 -6.4375 C 8.328125 -6.375 8.300781 -6.320312 8.25 -6.28125 C 8.195312 -6.238281 8.125 -6.21875 8.03125 -6.21875 L 6.265625 -6.21875 C 6.066406 -6.21875 5.96875 -6.253906 5.96875 -6.328125 L 5.96875 -6.4375 C 5.96875 -6.695312 5.832031 -6.914062 5.5625 -7.09375 C 5.300781 -7.269531 4.953125 -7.359375 4.515625 -7.359375 C 4.117188 -7.359375 3.789062 -7.285156 3.53125 -7.140625 C 3.28125 -7.003906 3.15625 -6.8125 3.15625 -6.5625 C 3.15625 -6.320312 3.273438 -6.140625 3.515625 -6.015625 C 3.765625 -5.898438 4.171875 -5.773438 4.734375 -5.640625 C 5.078125 -5.566406 5.410156 -5.476562 5.734375 -5.375 C 6.597656 -5.125 7.273438 -4.800781 7.765625 -4.40625 C 8.253906 -4.007812 8.5 -3.4375 8.5 -2.6875 C 8.5 -1.800781 8.144531 -1.109375 7.4375 -0.609375 C 6.726562 -0.117188 5.785156 0.125 4.609375 0.125 Z M 4.609375 0.125 "/></g></g></g><g clip-path="url(#9d3c970a70)"><path fill="#268fcd" d="M 38.375 19.394531 C 38.023438 19.398438 37.6875 19.472656 37.367188 19.609375 C 37.046875 19.75 36.765625 19.945312 36.523438 20.195312 C 36.277344 20.445312 36.089844 20.734375 35.960938 21.058594 C 35.832031 21.382812 35.769531 21.71875 35.777344 22.070312 L 35.777344 24.835938 C 22.464844 26.164062 12.03125 37.441406 12.03125 51.09375 C 12.023438 51.445312 12.089844 51.785156 12.21875 52.113281 C 12.351562 52.441406 12.542969 52.730469 12.789062 52.980469 C 13.039062 53.234375 13.324219 53.425781 13.648438 53.5625 C 13.976562 53.699219 14.316406 53.769531 14.667969 53.769531 C 15.023438 53.769531 15.359375 53.699219 15.6875 53.5625 C 16.011719 53.425781 16.300781 53.234375 16.546875 52.980469 C 16.796875 52.730469 16.984375 52.441406 17.117188 52.113281 C 17.25 51.785156 17.3125 51.445312 17.308594 51.09375 C 17.308594 48.144531 19.636719 45.816406 22.582031 45.816406 C 25.53125 45.816406 27.859375 48.144531 27.859375 51.09375 C 27.855469 51.425781 27.914062 51.75 28.03125 52.0625 C 28.148438 52.371094 28.320312 52.652344 28.542969 52.898438 C 28.769531 53.148438 29.03125 53.34375 29.328125 53.492188 C 29.628906 53.640625 29.945312 53.726562 30.277344 53.757812 C 30.363281 53.765625 30.453125 53.765625 30.539062 53.765625 C 30.890625 53.761719 31.226562 53.6875 31.546875 53.550781 C 31.867188 53.410156 32.148438 53.21875 32.390625 52.964844 C 32.636719 52.714844 32.820312 52.429688 32.949219 52.101562 C 33.082031 51.777344 33.140625 51.441406 33.136719 51.09375 C 33.136719 48.144531 35.46875 45.816406 38.414062 45.816406 C 41.359375 45.816406 43.691406 48.144531 43.691406 51.09375 C 43.6875 51.445312 43.75 51.785156 43.882812 52.113281 C 44.011719 52.441406 44.203125 52.730469 44.449219 52.980469 C 44.699219 53.234375 44.984375 53.425781 45.3125 53.5625 C 45.636719 53.699219 45.976562 53.769531 46.328125 53.769531 C 46.683594 53.769531 47.023438 53.699219 47.347656 53.5625 C 47.675781 53.425781 47.960938 53.234375 48.210938 52.980469 C 48.457031 52.730469 48.648438 52.441406 48.777344 52.113281 C 48.910156 51.785156 48.972656 51.445312 48.96875 51.09375 C 48.96875 48.144531 51.300781 45.816406 54.246094 45.816406 C 57.191406 45.816406 59.523438 48.144531 59.523438 51.09375 C 59.515625 51.445312 59.582031 51.785156 59.710938 52.113281 C 59.84375 52.441406 60.035156 52.730469 60.28125 52.980469 C 60.53125 53.234375 60.816406 53.425781 61.140625 53.5625 C 61.46875 53.699219 61.808594 53.769531 62.160156 53.769531 C 62.515625 53.769531 62.851562 53.699219 63.179688 53.5625 C 63.503906 53.425781 63.792969 53.234375 64.039062 52.980469 C 64.289062 52.730469 64.476562 52.441406 64.609375 52.113281 C 64.742188 51.785156 64.804688 51.445312 64.800781 51.09375 C 64.800781 37.441406 54.363281 26.164062 41.054688 24.835938 L 41.054688 22.070312 C 41.058594 21.710938 40.992188 21.367188 40.859375 21.039062 C 40.722656 20.707031 40.53125 20.417969 40.277344 20.164062 C 40.027344 19.914062 39.734375 19.71875 39.402344 19.585938 C 39.074219 19.453125 38.730469 19.390625 38.375 19.394531 Z M 38.375 48.417969 C 38.023438 48.421875 37.6875 48.496094 37.367188 48.632812 C 37.046875 48.773438 36.765625 48.964844 36.523438 49.21875 C 36.277344 49.46875 36.089844 49.757812 35.960938 50.082031 C 35.832031 50.40625 35.769531 50.742188 35.777344 51.09375 L 35.777344 64.285156 C 35.777344 65.773438 34.628906 66.921875 33.136719 66.921875 C 31.648438 66.921875 30.5 65.773438 30.5 64.285156 C 30.503906 63.929688 30.441406 63.589844 30.308594 63.261719 C 30.175781 62.933594 29.988281 62.644531 29.738281 62.394531 C 29.492188 62.144531 29.203125 61.949219 28.878906 61.8125 C 28.554688 61.675781 28.214844 61.609375 27.859375 61.609375 C 27.507812 61.609375 27.167969 61.675781 26.84375 61.8125 C 26.515625 61.949219 26.230469 62.144531 25.980469 62.394531 C 25.734375 62.644531 25.542969 62.933594 25.414062 63.261719 C 25.28125 63.589844 25.21875 63.929688 25.222656 64.285156 C 25.222656 68.625 28.796875 72.199219 33.136719 72.199219 C 37.476562 72.199219 41.054688 68.625 41.054688 64.285156 L 41.054688 51.09375 C 41.058594 50.734375 40.992188 50.390625 40.859375 50.0625 C 40.722656 49.730469 40.53125 49.441406 40.277344 49.1875 C 40.027344 48.9375 39.734375 48.742188 39.402344 48.609375 C 39.074219 48.476562 38.730469 48.410156 38.375 48.417969 Z M 38.375 48.417969 " fill-opacity="1" fill-rule="nonzero"/></g></svg>