<svg xmlns="http://www.w3.org/2000/svg" xmlns:xlink="http://www.w3.org/1999/xlink" width="50" zoomAndPan="magnify" viewBox="0 0 37.5 37.499999" height="50" preserveAspectRatio="xMidYMid meet" version="1.0"><defs><clipPath id="d6b570a082"><path d="M 0 0 L 37.007812 0 L 37.007812 37.007812 L 0 37.007812 Z M 0 0 " clip-rule="nonzero"/></clipPath></defs><g clip-path="url(#d6b570a082)"><path fill="#268fcd" d="M 18.472656 -0.0234375 C 18.230469 -0.0195312 17.996094 0.0273438 17.769531 0.125 C 17.542969 0.222656 17.347656 0.359375 17.175781 0.535156 C 17.003906 0.710938 16.875 0.914062 16.785156 1.140625 C 16.691406 1.367188 16.648438 1.605469 16.652344 1.851562 L 16.652344 3.789062 C 7.320312 4.722656 0 12.628906 0 22.203125 C -0.00390625 22.453125 0.0390625 22.691406 0.132812 22.921875 C 0.226562 23.148438 0.359375 23.351562 0.53125 23.53125 C 0.707031 23.707031 0.90625 23.839844 1.136719 23.9375 C 1.363281 24.03125 1.601562 24.082031 1.851562 24.082031 C 2.097656 24.082031 2.335938 24.03125 2.566406 23.9375 C 2.792969 23.839844 2.996094 23.707031 3.167969 23.53125 C 3.34375 23.351562 3.476562 23.148438 3.566406 22.921875 C 3.660156 22.691406 3.703125 22.453125 3.699219 22.203125 C 3.699219 20.136719 5.335938 18.503906 7.402344 18.503906 C 9.46875 18.503906 11.101562 20.136719 11.101562 22.203125 C 11.097656 22.4375 11.140625 22.664062 11.222656 22.882812 C 11.304688 23.101562 11.425781 23.296875 11.582031 23.472656 C 11.738281 23.644531 11.921875 23.785156 12.132812 23.886719 C 12.34375 23.992188 12.5625 24.050781 12.796875 24.074219 C 12.859375 24.078125 12.917969 24.082031 12.980469 24.078125 C 13.226562 24.074219 13.460938 24.023438 13.6875 23.929688 C 13.910156 23.832031 14.109375 23.695312 14.28125 23.519531 C 14.449219 23.34375 14.582031 23.140625 14.671875 22.914062 C 14.761719 22.683594 14.804688 22.449219 14.800781 22.203125 C 14.800781 20.136719 16.4375 18.503906 18.503906 18.503906 C 20.570312 18.503906 22.203125 20.136719 22.203125 22.203125 C 22.199219 22.453125 22.246094 22.691406 22.335938 22.921875 C 22.429688 23.148438 22.5625 23.351562 22.738281 23.53125 C 22.910156 23.707031 23.113281 23.839844 23.339844 23.9375 C 23.570312 24.03125 23.804688 24.082031 24.054688 24.082031 C 24.300781 24.082031 24.539062 24.03125 24.769531 23.9375 C 24.996094 23.839844 25.199219 23.707031 25.371094 23.53125 C 25.546875 23.351562 25.679688 23.148438 25.769531 22.921875 C 25.863281 22.691406 25.90625 22.453125 25.90625 22.203125 C 25.90625 20.136719 27.539062 18.503906 29.605469 18.503906 C 31.671875 18.503906 33.304688 20.136719 33.304688 22.203125 C 33.300781 22.453125 33.347656 22.691406 33.4375 22.921875 C 33.53125 23.148438 33.664062 23.351562 33.839844 23.53125 C 34.011719 23.707031 34.214844 23.839844 34.441406 23.9375 C 34.671875 24.03125 34.910156 24.082031 35.15625 24.082031 C 35.402344 24.082031 35.640625 24.03125 35.871094 23.9375 C 36.097656 23.839844 36.300781 23.707031 36.472656 23.53125 C 36.648438 23.351562 36.78125 23.148438 36.875 22.921875 C 36.964844 22.691406 37.011719 22.453125 37.007812 22.203125 C 37.007812 12.628906 29.6875 4.722656 20.355469 3.789062 L 20.355469 1.851562 C 20.355469 1.601562 20.3125 1.359375 20.21875 1.128906 C 20.125 0.894531 19.988281 0.691406 19.808594 0.515625 C 19.632812 0.339844 19.429688 0.203125 19.195312 0.109375 C 18.964844 0.015625 18.722656 -0.0273438 18.472656 -0.0234375 Z M 18.472656 20.328125 C 18.230469 20.332031 17.996094 20.382812 17.769531 20.480469 C 17.542969 20.578125 17.347656 20.714844 17.175781 20.890625 C 17.003906 21.066406 16.875 21.265625 16.785156 21.496094 C 16.691406 21.722656 16.648438 21.957031 16.652344 22.203125 L 16.652344 31.457031 C 16.652344 32.5 15.847656 33.304688 14.800781 33.304688 C 13.757812 33.304688 12.953125 32.5 12.953125 31.457031 C 12.957031 31.207031 12.910156 30.96875 12.820312 30.738281 C 12.726562 30.507812 12.59375 30.304688 12.417969 30.128906 C 12.246094 29.953125 12.042969 29.816406 11.816406 29.722656 C 11.585938 29.625 11.351562 29.578125 11.101562 29.578125 C 10.855469 29.578125 10.617188 29.625 10.386719 29.722656 C 10.160156 29.816406 9.957031 29.953125 9.785156 30.128906 C 9.609375 30.304688 9.476562 30.507812 9.386719 30.738281 C 9.292969 30.96875 9.25 31.207031 9.25 31.457031 C 9.25 34.5 11.757812 37.007812 14.800781 37.007812 C 17.847656 37.007812 20.355469 34.5 20.355469 31.457031 L 20.355469 22.203125 C 20.355469 21.953125 20.3125 21.714844 20.21875 21.480469 C 20.125 21.25 19.988281 21.046875 19.808594 20.867188 C 19.632812 20.691406 19.429688 20.558594 19.195312 20.464844 C 18.964844 20.371094 18.722656 20.324219 18.472656 20.328125 Z M 18.472656 20.328125 " fill-opacity="1" fill-rule="nonzero"/></g></svg>